<svg width="16" height="16" viewBox="0 0 16 16" fill="none" xmlns="http://www.w3.org/2000/svg">
<path fill-rule="evenodd" clip-rule="evenodd" d="M13.984 12.0271C14.269 12.0271 14.5 11.7911 14.5 11.5C14.5 11.2089 14.269 10.9729 13.984 10.9729L3.47555 10.9729L4.97324 9.39987C5.17476 9.19401 5.17476 8.86025 4.97324 8.65439C4.77172 8.44854 4.44499 8.44854 4.24347 8.65439L1.5 11.5L4.24347 14.3456C4.44499 14.5515 4.77172 14.5515 4.97324 14.3456C5.17476 14.1397 5.17476 13.806 4.97324 13.6001L3.47555 12.0271L13.984 12.0271ZM2.01602 3.97287C1.73103 3.97287 1.5 4.20887 1.5 4.5C1.5 4.79113 1.73103 5.02713 2.01602 5.02713L12.5244 5.02713L11.0268 6.60013C10.8252 6.80599 10.8252 7.13975 11.0268 7.34561C11.2283 7.55146 11.555 7.55146 11.7565 7.34561L14.5 4.5L11.7565 1.65439C11.555 1.44854 11.2283 1.44854 11.0268 1.65439C10.8252 1.86025 10.8252 2.19401 11.0268 2.39987L12.5244 3.97287L2.01602 3.97287Z" fill="black"/>
</svg>
