<svg width="16" height="16" viewBox="0 0 16 16" fill="none" xmlns="http://www.w3.org/2000/svg">
<path d="M1.00001 3H15V4H1.00001V3Z" fill="black"/>
<path d="M9.00001 7H15V8H9.00001V7Z" fill="black"/>
<path d="M4.32843 14.3536C4.52369 14.5488 4.84027 14.5488 5.03553 14.3536L8.21751 11.1716C8.41278 10.9763 8.41278 10.6597 8.21751 10.4645C8.02225 10.2692 7.70567 10.2692 7.51041 10.4645L5.18198 12.7929L5.18198 6L4.18198 6L4.18198 12.7929L1.85355 10.4645C1.65829 10.2692 1.34171 10.2692 1.14645 10.4645C0.951184 10.6597 0.951184 10.9763 1.14645 11.1716L4.32843 14.3536Z" fill="black"/>
</svg>
