<svg xmlns="http://www.w3.org/2000/svg" width="16" height="16" viewBox="0 0 16 16" fill="none">
  <path fill-rule="evenodd" clip-rule="evenodd" d="M9 4C10.1046 4 11 3.10457 11 2C11 0.895431 10.1046 0 9 0C7.89543 0 7 0.895431 7 2C7 3.10457 7.89543 4 9 4ZM9 3C9.55228 3 10 2.55228 10 2C10 1.44772 9.55228 1 9 1C8.44772 1 8 1.44772 8 2C8 2.55228 8.44772 3 9 3Z" fill="black"/>
  <path fill-rule="evenodd" clip-rule="evenodd" d="M14 4C15.1046 4 16 3.10457 16 2C16 0.895431 15.1046 0 14 0C12.8954 0 12 0.895431 12 2C12 3.10457 12.8954 4 14 4ZM14 3C14.5523 3 15 2.55228 15 2C15 1.44772 14.5523 1 14 1C13.4477 1 13 1.44772 13 2C13 2.55228 13.4477 3 14 3Z" fill="black"/>
  <path fill-rule="evenodd" clip-rule="evenodd" d="M9 9C10.1046 9 11 8.10457 11 7C11 5.89543 10.1046 5 9 5C7.89543 5 7 5.89543 7 7C7 8.10457 7.89543 9 9 9ZM9 8C9.55228 8 10 7.55228 10 7C10 6.44772 9.55228 6 9 6C8.44772 6 8 6.44772 8 7C8 7.55228 8.44772 8 9 8Z" fill="black"/>
  <path fill-rule="evenodd" clip-rule="evenodd" d="M14 9C15.1046 9 16 8.10457 16 7C16 5.89543 15.1046 5 14 5C12.8954 5 12 5.89543 12 7C12 8.10457 12.8954 9 14 9ZM14 8C14.5523 8 15 7.55228 15 7C15 6.44772 14.5523 6 14 6C13.4477 6 13 6.44772 13 7C13 7.55228 13.4477 8 14 8Z" fill="black"/>
  <path d="M0 8.26141L6 4.6084V5.69555L1.785 8.26141L7 11.437L9.36054 9.99956H11.1451L7 12.5233L0 8.26141Z" fill="black"/>
  <path d="M7 14.9376L13.1075 11.2194L14 11.7621L7.07525 15.9784C7.02877 16.0066 6.9721 16.0066 6.92562 15.9784L0 11.7621L0.8925 11.2194L7 14.9376Z" fill="black"/>
</svg>