<svg width="15" height="16" viewBox="0 0 15 16" fill="none" xmlns="http://www.w3.org/2000/svg">
<path d="M14.1411 14.8486L14.8482 14.1406L0.707092 0L0 0.707031L14.1411 14.8486Z" fill="black"/>
<path d="M6.10352e-05 3C6.10352e-05 2.76172 0.0646973 2.53027 0.186951 2.30859L1.03851 3.16016L1.05853 3.20117C1.09711 3.27441 1.1601 3.3623 1.2619 3.46484C1.3241 3.52832 1.39716 3.59277 1.48132 3.6582C1.54102 3.70508 1.60626 3.75195 1.67725 3.79883L3.46948 5.59082C2.4563 5.33691 1.60553 4.97656 1.00006 4.5459V12C1.00006 12.5156 1.47406 13.1416 2.6134 13.667C3.297 13.9824 4.15686 14.2285 5.12885 14.3691C5.28613 14.5049 5.45288 14.6367 5.62946 14.7637C5.71289 14.8232 5.79846 14.8818 5.88629 14.9395C6.20831 15.1494 6.56012 15.3398 6.94305 15.5C5.11469 15.4932 3.43713 15.1484 2.19434 14.5752C0.98114 14.0156 6.10352e-05 13.1406 6.10352e-05 12V3Z" fill="black"/>
<path d="M11.5559 4.20215C10.4655 4.66895 8.90149 4.98633 7.12054 5L8.08514 5.96387C10.1714 5.82422 11.9527 5.29102 13.0001 4.5459V7.98828L13.1115 8.05859C13.1899 8.11035 13.2666 8.16309 13.3415 8.2168L13.4242 8.27539C13.6295 8.42578 13.8213 8.58301 14.0001 8.74512V3C14.0001 1.34277 10.866 0 7.00006 0C5.39728 0 3.92023 0.230469 2.74023 0.619141L3.54401 1.42285C4.52094 1.16016 5.70526 1 7.00006 1C8.83087 1 10.4409 1.32031 11.5559 1.79785C11.9373 1.96094 12.2394 2.13379 12.4673 2.30273C12.5109 2.33496 12.5518 2.36719 12.59 2.39844L12.6779 2.47656L12.7382 2.53516C12.8557 2.6543 12.9214 2.75293 12.9577 2.83105C12.97 2.85742 12.9789 2.88184 12.9853 2.90332C12.9918 2.92578 12.9956 2.94531 12.9977 2.96289L13.0001 3C13.0001 3.0127 12.9991 3.02832 12.9965 3.0459L12.9913 3.07324C12.9856 3.09766 12.9766 3.12598 12.9628 3.1582C12.9277 3.23828 12.8614 3.34082 12.7382 3.46484C12.6166 3.58887 12.4535 3.71777 12.2465 3.84668C12.0546 3.9668 11.825 4.08691 11.5559 4.20215Z" fill="black"/>
<path d="M10.1612 8.04004L11.7063 9.58496C12.1638 9.83789 12.5652 10.1514 12.9095 10.4766C13.0168 10.5781 13.1172 10.6797 13.2109 10.7793L13.3156 10.8936L13.3931 10.9805C13.5577 11.1689 13.6959 11.3467 13.807 11.5L13.7279 11.6074L14.441 12.3203C14.8113 11.8457 15.0001 11.5 15.0001 11.5C15.0001 11.5 13.324 8.42871 10.1612 8.04004Z" fill="black"/>
<path d="M11.4336 13.5547L12.176 14.2979C11.4267 14.7109 10.5329 15 9.50006 15C5.91022 15 4.00006 11.5 4.00006 11.5C4.00006 11.5 4.91528 9.82324 6.66925 8.79102L7.40442 9.52637C6.90082 9.78906 6.4624 10.126 6.09058 10.4766C5.70087 10.8447 5.39996 11.2148 5.19312 11.5C5.29517 11.6406 5.4201 11.8018 5.56726 11.9736C5.6344 12.0518 5.70618 12.1318 5.78253 12.2129C5.87811 12.3154 5.98083 12.4199 6.09058 12.5234C6.90918 13.2959 8.05072 14 9.50006 14C10.2214 14 10.8666 13.8252 11.4336 13.5547Z" fill="black"/>
<path d="M8.00006 11.5C8.00006 11.1172 8.14386 10.7676 8.38043 10.502L10.4982 12.6201C10.233 12.8564 9.8833 13 9.50006 13C8.67163 13 8.00006 12.3281 8.00006 11.5Z" fill="black"/>
</svg>
