<svg width="15" height="16" viewBox="0 0 15 16" fill="none" xmlns="http://www.w3.org/2000/svg">
<path fill-rule="evenodd" clip-rule="evenodd" d="M14 8.74512V3C14 1.34277 10.866 0 7 0C3.13403 0 0 1.34277 0 3V12C0 13.1406 0.981079 14.0156 2.19427 14.5752C3.43707 15.1484 5.11462 15.4932 6.94299 15.5C6.23462 15.2041 5.63281 14.8027 5.12878 14.3691C4.1568 14.2285 3.29694 13.9824 2.61334 13.667C1.474 13.1416 1 12.5156 1 12V4.5459C2.22491 5.41699 4.45367 6 7 6C9.54633 6 11.7751 5.41699 13 4.5459V7.98828C13.1473 8.08008 13.2887 8.17676 13.4241 8.27539C13.6295 8.42578 13.8212 8.58301 14 8.74512ZM12.7382 3.46484C12.9683 3.23242 13 3.07617 13 3C13 2.96289 12.9924 2.90625 12.9576 2.83105C12.9214 2.75293 12.8557 2.6543 12.7382 2.53516C12.5038 2.29688 12.1151 2.03711 11.5558 1.79785C10.4409 1.32031 8.83081 1 7 1C5.16919 1 3.55914 1.32031 2.44415 1.79785C1.88489 2.03711 1.49622 2.29688 1.26184 2.53516C1.14673 2.65137 1.08124 2.74902 1.04456 2.82715C1.00793 2.9043 1 2.96191 1 3C1 3.07617 1.03174 3.23242 1.26184 3.46484C1.49622 3.70312 1.88489 3.96289 2.44415 4.20215C3.55914 4.67969 5.16919 5 7 5C8.83081 5 10.4409 4.67969 11.5558 4.20215C12.1151 3.96289 12.5038 3.70312 12.7382 3.46484Z" fill="black"/>
<path d="M9.5 13C10.3284 13 11 12.3281 11 11.5C11 10.6719 10.3284 10 9.5 10C8.67157 10 8 10.6719 8 11.5C8 12.3281 8.67157 13 9.5 13Z" fill="black"/>
<path fill-rule="evenodd" clip-rule="evenodd" d="M4 11.5C4 11.5 5.91016 15 9.5 15C13.0898 15 15 11.5 15 11.5C15 11.5 13.0898 8 9.5 8C5.91016 8 4 11.5 4 11.5ZM5.19305 11.5C5.3999 11.2148 5.70081 10.8447 6.09052 10.4766C6.90912 9.7041 8.05066 9 9.5 9C10.9493 9 12.0909 9.7041 12.9095 10.4766C13.0899 10.6475 13.2513 10.8184 13.3931 10.9805C13.5576 11.1689 13.6959 11.3467 13.8069 11.5C13.6769 11.6797 13.5098 11.8916 13.3068 12.1172C13.1868 12.25 13.0543 12.3867 12.9095 12.5234C12.0909 13.2959 10.9493 14 9.5 14C8.05066 14 6.90912 13.2959 6.09052 12.5234C5.70081 12.1553 5.3999 11.7852 5.19305 11.5Z" fill="black"/>
</svg>
