<svg width="16" height="16" viewBox="0 0 16 16" fill="none" xmlns="http://www.w3.org/2000/svg">
<path fill-rule="evenodd" clip-rule="evenodd" d="M1 13C0.447715 13 0 12.5523 0 12V3C0 2.44771 0.447715 2 1 2H14C14.5523 2 15 2.44772 15 3V4H14V3H1V12H9V13H1ZM9.01033 15H4.5C4.22386 15 4 15.2239 4 15.5C4 15.7761 4.22386 16 4.5 16H9.32719C9.15004 15.6981 9.04259 15.3542 9.01033 15Z" fill="#DCDCDC"/>
<path fill-rule="evenodd" clip-rule="evenodd" d="M10.4736 5.57808C10.7851 5.2187 11.2242 5 11.7 5H14.3C14.7758 5 15.2149 5.2187 15.5264 5.57808C15.8359 5.9352 16 6.40606 16 6.88462V14.1154C16 14.5939 15.8359 15.0648 15.5264 15.4219C15.2149 15.7813 14.7758 16 14.3 16H11.7C11.2242 16 10.7851 15.7813 10.4736 15.4219C10.1641 15.0648 10 14.5939 10 14.1154V6.88462C10 6.40606 10.1641 5.9352 10.4736 5.57808ZM11.7 6C11.5393 6 11.3679 6.07305 11.2293 6.23301C11.0887 6.39522 11 6.62873 11 6.88462V14.1154C11 14.3713 11.0887 14.6048 11.2293 14.767C11.3679 14.9269 11.5393 15 11.7 15H14.3C14.4607 15 14.6321 14.9269 14.7707 14.767C14.9113 14.6048 15 14.3713 15 14.1154V6.88462C15 6.62873 14.9113 6.39522 14.7707 6.23301C14.6321 6.07305 14.4607 6 14.3 6H11.7ZM12 13.5C12 13.2239 12.2239 13 12.5 13H13.5C13.7761 13 14 13.2239 14 13.5C14 13.7761 13.7761 14 13.5 14H12.5C12.2239 14 12 13.7761 12 13.5Z" fill="#DCDCDC"/>
</svg>
