<svg width="16" height="16" viewBox="0 0 16 16" fill="none" xmlns="http://www.w3.org/2000/svg">
<path fill-rule="evenodd" clip-rule="evenodd" d="M1 13C0.447715 13 0 12.5523 0 12V3C0 2.44771 0.447715 2 1 2H14C14.5523 2 15 2.44772 15 3V4.29211C14.7081 4.10537 14.3711 4 14.0167 4H14V3H1V12H6V13H1ZM6.01033 15H4.5C4.22386 15 4 15.2239 4 15.5C4 15.7761 4.22386 16 4.5 16H6.32719C6.15004 15.6981 6.04259 15.3542 6.01033 15Z" fill="#DCDCDC"/>
<path fill-rule="evenodd" clip-rule="evenodd" d="M7.47363 5.57808C7.78509 5.2187 8.22416 5 8.7 5H14.3C14.7758 5 15.2149 5.2187 15.5264 5.57808C15.8359 5.9352 16 6.40606 16 6.88462V14.1154C16 14.5939 15.8359 15.0648 15.5264 15.4219C15.2149 15.7813 14.7758 16 14.3 16H8.7C8.22416 16 7.78509 15.7813 7.47363 15.4219C7.16412 15.0648 7 14.5939 7 14.1154V6.88462C7 6.40606 7.16412 5.9352 7.47363 5.57808ZM8.7 6C8.53932 6 8.36795 6.07305 8.22932 6.23301C8.08874 6.39522 8 6.62873 8 6.88462V14.1154C8 14.3713 8.08874 14.6048 8.22932 14.767C8.36795 14.9269 8.53932 15 8.7 15H14.3C14.4607 15 14.6321 14.9269 14.7707 14.767C14.9113 14.6048 15 14.3713 15 14.1154V6.88462C15 6.62873 14.9113 6.39522 14.7707 6.23301C14.6321 6.07305 14.4607 6 14.3 6H8.7ZM10 13.5C10 13.2239 10.2239 13 10.5 13H12.5C12.7761 13 13 13.2239 13 13.5C13 13.7761 12.7761 14 12.5 14H10.5C10.2239 14 10 13.7761 10 13.5Z" fill="#DCDCDC"/>
</svg>
