<svg width="16" height="16" viewBox="0 0 16 16" fill="none" xmlns="http://www.w3.org/2000/svg">
<path fill-rule="evenodd" clip-rule="evenodd" d="M1 3C1 1.89543 1.89543 1 3 1H13C14.1046 1 15 1.89543 15 3V10C15 11.1046 14.1046 12 13 12H8.5V13.5H12C12.2761 13.5 12.5 13.7239 12.5 14C12.5 14.2761 12.2761 14.5 12 14.5H4C3.72386 14.5 3.5 14.2761 3.5 14C3.5 13.7239 3.72386 13.5 4 13.5H7.5V12H3C1.89543 12 1 11.1046 1 10V3ZM3 2H13C13.5523 2 14 2.44772 14 3V8.5H2V3C2 2.44772 2.44772 2 3 2ZM2 9.5V10C2 10.5523 2.44772 11 3 11H13C13.5523 11 14 10.5523 14 10V9.5H2Z" fill="black"/>
</svg>
