<svg width="16" height="16" viewBox="0 0 16 16" fill="none" xmlns="http://www.w3.org/2000/svg">
<path d="M1 1V5H2V2H5V1H1Z" fill="black"/>
<path d="M15 1H11V2H14V5H15V1Z" fill="black"/>
<path d="M1 15V11H2V14H5V15H1Z" fill="black"/>
<path d="M15 15V11H14V14H11V15H15Z" fill="black"/>
<path fill-rule="evenodd" clip-rule="evenodd" d="M4.18198 10.546C5.81985 12.1839 8.40615 12.2952 10.173 10.8801L12.3137 13.0208L13.0208 12.3137L10.8801 10.173C12.2952 8.40614 12.1838 5.81988 10.5459 4.18203C8.78858 2.42467 5.93934 2.42467 4.18198 4.18203C2.42462 5.93939 2.42462 8.78864 4.18198 10.546ZM9.85073 9.82693L9.82688 9.85079C8.45911 11.2057 6.25194 11.2017 4.88909 9.83889C3.52225 8.47205 3.52225 6.25597 4.88909 4.88914C6.25592 3.52231 8.472 3.52231 9.83883 4.88914C11.2017 6.252 11.2057 8.45916 9.85073 9.82693Z" fill="black"/>
</svg>
