<svg width="16" height="16" viewBox="0 0 16 16" fill="none" xmlns="http://www.w3.org/2000/svg">
<g id="Application/hammer">
<path id="Union" fill-rule="evenodd" clip-rule="evenodd" d="M15.116 5.62455C14.4611 4.83868 13.8314 4.23417 13.2354 3.7762L10.2069 6.80472L15 11.5976C15.3906 11.9881 15.3906 12.6213 15.0001 13.0118L13.2072 14.8047C12.8167 15.1953 12.1835 15.1953 11.793 14.8048L6.99981 10.0118L4.70718 12.3045C4.31666 12.695 3.68349 12.695 3.29297 12.3045L1.00008 10.0116C0.609551 9.62104 0.609551 8.98788 1.00008 8.59736L6.6352 2.96223C7.17219 2.35451 8.08227 1.74213 9.26375 1.55655C10.4673 1.36749 11.9082 1.62817 13.4691 2.70894C14.2494 3.24922 15.0579 3.99277 15.8842 4.98437L15.116 5.62455ZM7.37636 3.63371C7.77343 3.17992 8.4835 2.69137 9.41893 2.54443C10.2246 2.41787 11.2315 2.53945 12.3899 3.20749L9.49981 6.09762C9.10928 6.48815 9.10929 7.12133 9.49983 7.51185L10.7929 8.80481L8.99996 10.5977L7.7069 9.30471C7.31637 8.9142 6.68322 8.91421 6.29271 9.30473L5.99992 9.59751L3.70703 7.30461L7.3654 3.64624L7.37636 3.63371ZM2.99993 8.01172L1.70718 9.30446L4.00008 11.5974L5.29282 10.3046L2.99993 8.01172ZM9.70708 11.3048L12.5001 14.0976L14.293 12.3047L11.5 9.5119L9.70708 11.3048Z" fill="#E3E3E3"/>
</g>
</svg>
