<svg width="16" height="16" viewBox="0 0 16 16" fill="none" xmlns="http://www.w3.org/2000/svg">
<path fill-rule="evenodd" clip-rule="evenodd" d="M4.97363 2.07808C5.28509 1.7187 5.72416 1.5 6.2 1.5H9.8C10.2758 1.5 10.7149 1.7187 11.0264 2.07808C11.3359 2.4352 11.5 2.90606 11.5 3.38462V12.6154C11.5 13.0939 11.3359 13.5648 11.0264 13.9219C10.7149 14.2813 10.2758 14.5 9.8 14.5H6.2C5.72416 14.5 5.28509 14.2813 4.97363 13.9219C4.66412 13.5648 4.5 13.0939 4.5 12.6154V3.38462C4.5 2.90606 4.66412 2.4352 4.97363 2.07808ZM6.2 2.5C6.03932 2.5 5.86795 2.57305 5.72932 2.73301C5.58874 2.89522 5.5 3.12873 5.5 3.38462V12.6154C5.5 12.8713 5.58874 13.1048 5.72932 13.267C5.86795 13.4269 6.03932 13.5 6.2 13.5H9.8C9.96068 13.5 10.1321 13.4269 10.2707 13.267C10.4113 13.1048 10.5 12.8713 10.5 12.6154V3.38462C10.5 3.12873 10.4113 2.89522 10.2707 2.73301C10.1321 2.57305 9.96068 2.5 9.8 2.5H6.2ZM6.5 12C6.5 11.7239 6.72386 11.5 7 11.5H9C9.27614 11.5 9.5 11.7239 9.5 12C9.5 12.2761 9.27614 12.5 9 12.5H7C6.72386 12.5 6.5 12.2761 6.5 12Z" fill="black"/>
</svg>
