<svg width="16" height="16" viewBox="0 0 16 16" fill="none" xmlns="http://www.w3.org/2000/svg">
<path fill-rule="evenodd" clip-rule="evenodd" d="M13.3846 5.78387V8.66948L14.3033 10.5636C14.6254 11.2277 14.1417 12 13.4036 12H11C11 12.394 10.9224 12.7841 10.7717 13.1481C10.6209 13.512 10.3999 13.8427 10.1213 14.1213C9.84276 14.3999 9.51205 14.6209 9.14807 14.7716C8.78409 14.9224 8.39399 15 8.00002 15C7.60605 15 7.21595 14.9224 6.85197 14.7716C6.48799 14.6209 6.15728 14.3999 5.8787 14.1213C5.60012 13.8427 5.37915 13.512 5.22838 13.1481C5.07762 12.7841 5.00002 12.394 5.00002 12H2.59646C1.85834 12 1.37459 11.2277 1.69671 10.5636L2.6154 8.66948V5.78387C3.5389 -0.594624 12.4611 -0.594624 13.3846 5.78387ZM13.4036 11L12.4849 9.10588C12.4189 8.96986 12.3846 8.82065 12.3846 8.66948V5.85876C11.5769 0.713746 4.42313 0.713748 3.6154 5.85876V8.66948C3.6154 8.82065 3.58113 8.96986 3.51516 9.10588L2.59646 11H13.4036ZM6.00002 12C6.00002 12.2626 6.05175 12.5227 6.15226 12.7654C6.18574 12.8462 6.22441 12.9246 6.26797 13C6.35517 13.151 6.46195 13.2904 6.58581 13.4142C6.77152 13.5999 6.992 13.7472 7.23465 13.8478C7.4773 13.9483 7.73738 14 8.00002 14C8.26266 14 8.52274 13.9483 8.76539 13.8478C9.00804 13.7472 9.22852 13.5999 9.41423 13.4142C9.53809 13.2904 9.64487 13.151 9.73207 13C9.77563 12.9246 9.8143 12.8462 9.84778 12.7654C9.94829 12.5227 10 12.2626 10 12H6.00002Z" fill="black"/>
</svg>
