<svg width="16" height="16" viewBox="0 0 16 16" fill="none" xmlns="http://www.w3.org/2000/svg">
<path fill-rule="evenodd" clip-rule="evenodd" d="M1 9.00006H0V8.00006H1V9.00006ZM3 8.00006H2V9.00006H3V8.00006ZM13 9.00006H14V8.00006H13V9.00006ZM16 8.00006H15V9.00006H16V8.00006ZM5 9.00006H11V10.0001H12V7.00006H11V8.00006H5V7.00006H4V10.0001H5V9.00006ZM9 3.50006C9.00027 2.18449 10.0201 1.09423 11.3327 1.00617C12.6453 0.91812 13.8016 1.86241 13.9775 3.16615C14.1535 4.46989 13.289 5.68695 12 5.95006V6.50006H11V5.95006C9.83583 5.71242 8.99976 4.68823 9 3.50006ZM10 3.50006C10 4.32849 10.6716 5.00006 11.5 5.00006C12.3284 5.00006 13 4.32849 13 3.50006C13 2.67163 12.3284 2.00006 11.5 2.00006C10.672 2.00116 10.0011 2.67209 10 3.50006ZM2 13.5001C1.99976 12.3119 2.83583 11.2877 4 11.0501V10.5001H5V11.0501C6.28898 11.3132 7.15351 12.5302 6.97753 13.834C6.80155 15.1377 5.64528 16.082 4.33267 15.9939C3.02005 15.9059 2.00027 14.8156 2 13.5001ZM3 13.5001C3 14.3285 3.67157 15.0001 4.5 15.0001C5.32843 15.0001 6 14.3285 6 13.5001C6 12.6716 5.32843 12.0001 4.5 12.0001C3.67203 12.0012 3.0011 12.6721 3 13.5001Z" fill="#110000"/>
</svg>

