<svg width="17" height="17" viewBox="0 0 17 17" fill="none" xmlns="http://www.w3.org/2000/svg">
<path fill-rule="evenodd" clip-rule="evenodd" d="M13.777 5.508C13.208 2.138 11.38 0 8.99701 0L8.96501 0.002C4.66314 0.0195795 1.14539 3.43601 1.00213 7.73553C0.858878 12.035 4.14141 15.6781 8.43257 15.9819C12.7237 16.2858 16.4869 13.1418 16.951 8.865C16.9813 8.72968 16.9977 8.59164 17 8.453C17 8.405 16.987 8.361 16.984 8.314C16.988 8.21 17 8.105 17 8C17 6.863 15.916 6.026 13.777 5.509V5.508ZM8.96701 1.002L8.99901 1C9.23266 1.00095 9.46522 1.03187 9.69101 1.092C9.77201 1.114 9.84701 1.152 9.92601 1.181C10.0652 1.22752 10.2006 1.28469 10.331 1.352C10.425 1.40726 10.5162 1.46734 10.604 1.532C10.711 1.60312 10.8138 1.68024 10.912 1.763C11.0099 1.85094 11.1034 1.94372 11.192 2.041C11.272 2.127 11.352 2.215 11.427 2.311C11.5223 2.431 11.6137 2.55833 11.701 2.693C11.8618 2.94265 12.0048 3.2033 12.129 3.473C12.169 3.56 12.205 3.653 12.242 3.743C12.324 3.943 12.404 4.147 12.472 4.365C12.494 4.435 12.512 4.51 12.532 4.581C12.604 4.831 12.674 5.086 12.728 5.358C12.792 5.674 12.849 5.996 12.887 6.338L11.763 6.95C11.504 4.609 10.554 2.6 9.42501 2.6C7.55101 2.6 6.80001 6.84 7.09101 9.494L5.11401 10.571C5.07595 10.2082 5.04794 9.84437 5.03001 9.48C5.01001 9.097 5.00001 8.732 5.00001 8.456C5.00001 4.02 6.77601 1.03 8.96701 1.002ZM8.33201 8.82L8.23901 8.87C8.08901 7.837 8.56801 4.6 9.53401 4.6C10.117 4.6 10.645 6.576 10.778 7.487L8.24701 8.865L8.33201 8.82ZM9.00001 15C5.76248 15.0019 2.94679 12.7816 2.1937 9.6329C1.4406 6.48418 2.94697 3.23016 5.83501 1.767C4.53499 3.74815 3.89287 6.08882 4.00001 8.456C4.00001 9.001 4.03801 9.931 4.12001 10.681L4.12301 10.691V10.701C4.12501 10.719 4.13301 10.734 4.13701 10.751C4.1494 10.8223 4.16952 10.8921 4.19701 10.959C4.21001 10.989 4.22701 11.017 4.24201 11.046C4.33643 11.206 4.46775 11.3411 4.62501 11.44C4.63501 11.445 4.64201 11.453 4.65101 11.458C4.71933 11.4929 4.79148 11.5197 4.86601 11.538L4.87801 11.543C6.22748 11.8554 7.60888 12.0088 8.99401 12H9.00101C10.7969 12.0286 12.5848 11.7551 14.29 11.191C14.7061 11.042 15.1069 10.8535 15.487 10.628C14.4145 13.2685 11.85 14.9969 9.00001 15ZM15.964 8.711V8.712C15.604 9.994 12.619 10.998 9.00001 11C8.22798 10.9996 7.45676 10.9502 6.69101 10.852L8.81301 9.7C9.01801 9.71 9.21301 9.728 9.42701 9.727C11.747 9.727 14 9.065 14 8.222C14 7.912 13.615 7.626 13.075 7.385L14.215 6.765C14.247 6.778 14.281 6.79 14.312 6.804C14.464 6.86937 14.6134 6.94042 14.76 7.017C14.796 7.035 14.831 7.054 14.865 7.073C15.2846 7.27769 15.6356 7.60015 15.875 8.001H15.886C15.9364 8.10352 15.9695 8.21367 15.984 8.327L15.982 8.352C15.9898 8.38532 15.9958 8.41903 16 8.453C16 8.54091 15.9879 8.62839 15.964 8.713V8.711Z" fill="black"/>
</svg>
