<svg width="16" height="16" viewBox="0 0 16 16" fill="none" xmlns="http://www.w3.org/2000/svg">
<path fill-rule="evenodd" clip-rule="evenodd" d="M3.08579 1.58579C3.46086 1.21071 3.96957 1 4.5 1H11.5C12.0304 1 12.5391 1.21071 12.9142 1.58579C13.2893 1.96086 13.5 2.46957 13.5 3V13C13.5 13.5304 13.2893 14.0391 12.9142 14.4142C12.5391 14.7893 12.0304 15 11.5 15H4.5C3.96957 15 3.46086 14.7893 3.08579 14.4142C2.71071 14.0391 2.5 13.5304 2.5 13V3C2.5 2.46957 2.71071 1.96086 3.08579 1.58579ZM4.5 2C4.23478 2 3.98043 2.10536 3.79289 2.29289C3.60536 2.48043 3.5 2.73478 3.5 3V13C3.5 13.2652 3.60536 13.5196 3.79289 13.7071C3.98043 13.8946 4.23478 14 4.5 14H11.5C11.7652 14 12.0196 13.8946 12.2071 13.7071C12.3946 13.5196 12.5 13.2652 12.5 13V3C12.5 2.73478 12.3946 2.48043 12.2071 2.29289C12.0196 2.10536 11.7652 2 11.5 2H4.5ZM6 12.5C6 12.2239 6.22386 12 6.5 12H9.5C9.77614 12 10 12.2239 10 12.5C10 12.7761 9.77614 13 9.5 13H6.5C6.22386 13 6 12.7761 6 12.5Z" fill="black"/>
</svg>
