<svg width="16" height="16" viewBox="0 0 16 16" fill="none" xmlns="http://www.w3.org/2000/svg">
<path d="M0.585787 2.58579C0.960859 2.21071 1.46957 2 2 2H9C9.53043 2 10.0391 2.21071 10.4142 2.58579C10.7893 2.96086 11 3.46957 11 4H10.9429C10.6039 4 10.2812 4.09806 10 4.27237V4C10 3.73478 9.89464 3.48043 9.70711 3.29289C9.51957 3.10536 9.26522 3 9 3H2C1.73478 3 1.48043 3.10536 1.29289 3.29289C1.10536 3.48043 1 3.73478 1 4V14C1 14.2652 1.10536 14.5196 1.29289 14.7071C1.48043 14.8946 1.73478 15 2 15H9L9.00625 15C9.03099 15.3448 9.12884 15.6809 9.29448 15.9782C9.19756 15.9926 9.09916 16 9 16H2C1.46957 16 0.960859 15.7893 0.585787 15.4142C0.210714 15.0391 0 14.5304 0 14V4C0 3.46957 0.210714 2.96086 0.585787 2.58579Z" fill="white"/>
<path d="M3.5 13.5C3.5 13.2239 3.72386 13 4 13H7C7.27614 13 7.5 13.2239 7.5 13.5C7.5 13.7761 7.27614 14 7 14H4C3.72386 14 3.5 13.7761 3.5 13.5Z" fill="white"/>
<path d="M12.5 13C12.2239 13 12 13.2239 12 13.5C12 13.7761 12.2239 14 12.5 14H13.5C13.7761 14 14 13.7761 14 13.5C14 13.2239 13.7761 13 13.5 13H12.5Z" fill="white"/>
<path fill-rule="evenodd" clip-rule="evenodd" d="M11.7 5C11.2242 5 10.7851 5.2187 10.4736 5.57808C10.1641 5.9352 10 6.40606 10 6.88462V14.1154C10 14.5939 10.1641 15.0648 10.4736 15.4219C10.7851 15.7813 11.2242 16 11.7 16H14.3C14.7758 16 15.2149 15.7813 15.5264 15.4219C15.8359 15.0648 16 14.5939 16 14.1154V6.88462C16 6.40606 15.8359 5.9352 15.5264 5.57808C15.2149 5.2187 14.7758 5 14.3 5H11.7ZM11.2293 6.23301C11.3679 6.07305 11.5393 6 11.7 6H14.3C14.4607 6 14.6321 6.07305 14.7707 6.23301C14.9113 6.39522 15 6.62873 15 6.88462V14.1154C15 14.3713 14.9113 14.6048 14.7707 14.767C14.6321 14.9269 14.4607 15 14.3 15H11.7C11.5393 15 11.3679 14.9269 11.2293 14.767C11.0887 14.6048 11 14.3713 11 14.1154V6.88462C11 6.62873 11.0887 6.39522 11.2293 6.23301Z" fill="white"/>
</svg>
