<svg width="16" height="16" viewBox="0 0 16 16" fill="none" xmlns="http://www.w3.org/2000/svg">
<g id="Application/text-outline">
<path id="Vector (Stroke)" fill-rule="evenodd" clip-rule="evenodd" d="M15 1V5H11.9091V4.02614C11.8945 4.01521 11.8633 4 11.8182 4H9.54545V12H11.4935V15H4.50649V12H6.45455V4H4.18182C4.1367 4 4.10553 4.01522 4.09091 4.02614V5H1V1H15ZM8.54545 3H11.8182C12.1075 3 12.385 3.10536 12.5896 3.29289C12.7942 3.48043 12.9091 3.73478 12.9091 4H14V2H2V4H3.09091C3.09091 3.73478 3.20584 3.48043 3.41043 3.29289C3.61501 3.10536 3.89249 3 4.18182 3H7.45455V12.5C7.45455 12.6326 7.39708 12.7598 7.29479 12.8536C7.19249 12.9473 7.05375 13 6.90909 13H5.50649V14H10.4935V13H9.09091C8.94625 13 8.80751 12.9473 8.70521 12.8536C8.60292 12.7598 8.54545 12.6326 8.54545 12.5V3Z" fill="black"/>
</g>
</svg>
