<svg width="20" height="20" viewBox="0 0 20 20" fill="none" xmlns="http://www.w3.org/2000/svg">
<path d="M2.5 6.4H17.5V7.6H2.5V6.4Z" fill="white"/>
<path d="M11.25 8.8H2.5V10H11.25V8.8Z" fill="white"/>
<path d="M6.25 12.4C6.25 11.7373 6.80964 11.2 7.5 11.2H10C10.6904 11.2 11.25 11.7373 11.25 12.4C11.25 13.0627 10.6904 13.6 10 13.6H7.5C6.80964 13.6 6.25 13.0627 6.25 12.4Z" fill="white"/>
<path d="M13.75 11.2C13.0596 11.2 12.5 11.7373 12.5 12.4C12.5 13.0627 13.0596 13.6 13.75 13.6H16.25C16.9404 13.6 17.5 13.0627 17.5 12.4C17.5 11.7373 16.9404 11.2 16.25 11.2H13.75Z" fill="white"/>
<path fill-rule="evenodd" clip-rule="evenodd" d="M0 4V16H20V4H0ZM18.75 5.2H1.25V14.8H18.75V5.2Z" fill="white"/>
</svg>
