<svg width="20" height="20" viewBox="0 0 20 20" fill="none" xmlns="http://www.w3.org/2000/svg">
<path fill-rule="evenodd" clip-rule="evenodd" d="M7 2.68C7 0.75 8.57 0 10.5 0C12.43 0 14 0.74 14 2.68V9.07L10.5 12.58L7 9.07V2.68ZM10.5 11.18L13 8.67V2.68C13 2.27 13 1 10.5 1C8 1 8 2.26 8 2.68V8.67L10.5 11.18ZM9 4.5C9 3.67 9.67 3 10.5 3C11.33 3 12 3.67 12 4.5C12 5.33 11.33 6 10.5 6C9.67 6 9 5.33 9 4.5ZM10 4.5C10 4.78 10.22 5 10.5 5C10.78 5 11 4.78 11 4.5C11 4.22 10.78 4 10.5 4C10.22 4 10 4.22 10 4.5ZM14.93 12L14.9267 12.0029L14.92 12H14.93ZM14.9267 12.0029C16.7629 12.8032 17.96 14.1018 17.96 15.56C17.96 18.01 14.61 20 10.49 20C6.37002 20 3.02002 18.01 3.02002 15.56C3.02002 14.1 4.22002 12.81 6.06002 12L6.92002 12.77C5.60002 13.34 4.76002 14.21 4.76002 15.19C4.76002 16.9 7.33002 18.29 10.49 18.29C13.65 18.29 16.22 16.9 16.22 15.19C16.22 14.21 15.38 13.34 14.07 12.77L14.9267 12.0029ZM12.5 15C12.5 15.55 11.6 16 10.5 16C9.4 16 8.5 15.55 8.5 15C8.5 14.45 9.4 14 10.5 14C11.6 14 12.5 14.45 12.5 15Z" fill="black"/>
</svg>
