<svg width="20" height="20" viewBox="0 0 20 20" fill="none" xmlns="http://www.w3.org/2000/svg">
<path d="M14 18V15H11V14H14V11H15V14H18V15H15V18H14Z" fill="black"/>
<path fill-rule="evenodd" clip-rule="evenodd" d="M19 11.3369V4C19 1.79086 14.9706 0 10 0C5.02944 0 1 1.79086 1 4V15C1 16.412 2.19738 17.5376 3.77669 18.2808C5.39522 19.0425 7.59604 19.5 10 19.5C10.6813 19.5 11.3463 19.4633 11.9863 19.3933C12.7397 19.7811 13.5943 20 14.5 20C17.5376 20 20 17.5376 20 14.5C20 13.3226 19.63 12.2316 19 11.3369ZM9.20228 15.9831C9.47282 16.9515 10.0018 17.8121 10.7101 18.4859C10.4763 18.4952 10.2395 18.5 10 18.5C7.70954 18.5 5.66036 18.0621 4.20249 17.376C2.70541 16.6715 2 15.7971 2 15V13.6021C2.47528 14.0621 3.08987 14.4576 3.77669 14.7808C5.21437 15.4574 7.11147 15.894 9.20228 15.9831ZM9 14.5C9 14.6593 9.00678 14.8171 9.02005 14.973C7.12778 14.8678 5.44899 14.4626 4.20249 13.876C2.70541 13.1715 2 12.2971 2 11.5V9.60213C2.47528 10.0621 3.08987 10.4576 3.77669 10.7808C5.30543 11.5002 7.35365 11.9483 9.60186 11.9958C9.21709 12.7469 9 13.5981 9 14.5ZM10 11C10.0866 11 10.1728 10.9994 10.2587 10.9981C11.2675 9.7777 12.7929 9 14.5 9C15.2512 9 15.9672 9.15059 16.6195 9.42324C17.5543 8.8161 18 8.13365 18 7.5V5.83431C16.5038 7.12069 13.4829 8 10 8C6.51707 8 3.49623 7.12069 2 5.83431V7.5C2 8.29714 2.70541 9.17151 4.20249 9.87602C5.66036 10.5621 7.70954 11 10 11ZM18 10.2572C17.87 10.1498 17.735 10.0483 17.5954 9.95306C17.7391 9.84068 17.8744 9.72365 18 9.60213V10.2572ZM18 4C18 4.2269 17.9007 4.51836 17.5683 4.8676C17.2311 5.22199 16.6958 5.58663 15.9578 5.91462C14.4844 6.56946 12.3789 7 10 7C7.62114 7 5.51558 6.56946 4.04218 5.91462C3.30422 5.58663 2.76892 5.22199 2.43166 4.8676C2.0993 4.51836 2 4.2269 2 4C2 3.7731 2.0993 3.48164 2.43166 3.1324C2.76892 2.77801 3.30422 2.41337 4.04218 2.08538C5.51558 1.43054 7.62114 1 10 1C12.3789 1 14.4844 1.43054 15.9578 2.08538C16.6958 2.41337 17.2311 2.77801 17.5683 3.1324C17.9007 3.48164 18 3.7731 18 4ZM14.5 19C16.9853 19 19 16.9853 19 14.5C19 12.0147 16.9853 10 14.5 10C12.0147 10 10 12.0147 10 14.5C10 16.9853 12.0147 19 14.5 19Z" fill="black"/>
</svg>
