<svg width="20" height="20" viewBox="0 0 20 20" fill="none" xmlns="http://www.w3.org/2000/svg">
<path d="M4.5 3C4.22388 3 4 3.22388 4 3.5C4 3.77612 4.22388 4 4.5 4H10.5C10.7761 4 11 3.77612 11 3.5C11 3.22388 10.7761 3 10.5 3H4.5Z" fill="black"/>
<path d="M4.5 5C4.22388 5 4 5.22388 4 5.5C4 5.77612 4.22388 6 4.5 6H10.5C10.7761 6 11 5.77612 11 5.5C11 5.22388 10.7761 5 10.5 5H4.5Z" fill="black"/>
<path fill-rule="evenodd" clip-rule="evenodd" d="M4 7.5C4 7.22388 4.22388 7 4.5 7H15.5C15.7761 7 16 7.22388 16 7.5V16.5C16 16.7761 15.7761 17 15.5 17H4.5C4.22388 17 4 16.7761 4 16.5V7.5ZM5 11V13H8V11H5ZM9 11V13H11V11H9ZM9 14H11V16H9V14ZM15 14V16H12V14H15ZM12 11V13H15V11H12ZM15 8V10H12V8H15ZM9 8H11V10H9V8ZM8 14H5V16H8V14ZM8 8V10H5V8H8Z" fill="black"/>
<path fill-rule="evenodd" clip-rule="evenodd" d="M3.5 0C2.67157 0 2 0.671572 2 1.5V18.5C2 19.3284 2.67157 20 3.5 20H16.5C17.3284 20 18 19.3284 18 18.5V4.5C18 4.36739 17.9473 4.24021 17.8536 4.14645L13.8536 0.146447C13.7598 0.0526784 13.6326 0 13.5 0H3.5ZM3 1.5C3 1.22386 3.22386 1 3.5 1H13V4C13 4.55228 13.4477 5 14 5H17V18.5C17 18.7761 16.7761 19 16.5 19H3.5C3.22386 19 3 18.7761 3 18.5V1.5ZM16.2929 4L14 1.70711V4H16.2929Z" fill="black"/>
</svg>
