<svg width="20" height="20" viewBox="0 0 20 20" fill="none" xmlns="http://www.w3.org/2000/svg">
<path d="M2 4H17C17.5523 4 18 4.44772 18 5V11H19V5C19 3.89543 18.1046 3 17 3H2C0.895431 3 0 3.89543 0 5V15C0 16.1046 0.895431 17 2 17H11V16H2C1.44772 16 1 15.5523 1 15V5C1 4.44772 1.44772 4 2 4Z" fill="black"/>
<path d="M5.5 7.5V5.5H4.5V7.5H3V8.5L13.5 8.5V10.5H14.5V8.5H16V7.5L5.5 7.5Z" fill="black"/>
<path fill-rule="evenodd" clip-rule="evenodd" d="M7 12C7 13.1046 6.10457 14 5 14C3.89543 14 3 13.1046 3 12C3 10.8954 3.89543 10 5 10C6.10457 10 7 10.8954 7 12ZM6 12C6 12.5523 5.55228 13 5 13C4.44772 13 4 12.5523 4 12C4 11.4477 4.44772 11 5 11C5.55228 11 6 11.4477 6 12Z" fill="black"/>
<path d="M16 19V16H13V15H16V12H17V15H20V16H17V19H16Z" fill="black"/>
</svg>
