<svg width="16" height="16" viewBox="0 0 16 16" fill="none" xmlns="http://www.w3.org/2000/svg">
    <g clip-path="url(#clip0_2575_704)">
        <path fill-rule="evenodd" clip-rule="evenodd"
            d="M13.5172 1.68266C12.9002 1.06567 11.8999 1.06567 11.2829 1.68266L4.48291 8.48266C3.5535 9.41207 2.04663 9.41207 1.11722 8.48266C0.187813 7.55325 0.187815 6.04638 1.11722 5.11698L4.23438 1.99982H2.40006C2.17915 1.99982 2.00006 1.82073 2.00006 1.59982C2.00006 1.37891 2.17915 1.19982 2.40006 1.19982H5.20006C5.42098 1.19982 5.60006 1.37891 5.60006 1.59982V4.39982C5.60006 4.62073 5.42098 4.79982 5.20006 4.79982C4.97915 4.79982 4.80006 4.62073 4.80006 4.39982V2.56551L1.68291 5.68266C1.06592 6.29965 1.06592 7.29999 1.68291 7.91698C2.2999 8.53397 3.30023 8.53397 3.91722 7.91698L10.7172 1.11698C11.6466 0.18757 13.1535 0.187569 14.0829 1.11698C15.0123 2.04639 15.0123 3.55325 14.0829 4.48266L6.48291 12.0827C5.86592 12.6997 5.86592 13.7 6.48291 14.317C7.0999 14.934 8.10023 14.934 8.71722 14.317L14.6344 8.39982C14.7906 8.24361 15.0439 8.24361 15.2001 8.39982C15.3563 8.55603 15.3563 8.8093 15.2001 8.96551L9.28291 14.8827C8.3535 15.8121 6.84663 15.8121 5.91722 14.8827C4.98781 13.9533 4.98781 12.4464 5.91722 11.517L13.5172 3.91698C14.1342 3.29999 14.1342 2.29965 13.5172 1.68266Z"
            fill="#1B1C1C" />
    </g>
    <defs>
        <clipPath id="clip0_2575_704">
            <rect width="16" height="16" fill="white" />
        </clipPath>
    </defs>
</svg>