<svg width="20" height="20" viewBox="0 0 20 20" fill="none" xmlns="http://www.w3.org/2000/svg">
  <path fill-rule="evenodd" clip-rule="evenodd"
    d="M4 17.0622L0.5 11L16.0885 2L19.5885 8.06218L4 17.0622ZM1.86603 11.366L15.7224 3.36603L18.2224 7.69615L16.9234 8.44615L15.9234 6.7141L15.0574 7.2141L16.0574 8.94615L14.3253 9.94615L13.3253 8.2141L12.4593 8.7141L13.4593 10.4462L11.7272 11.4462L10.2272 8.84808L9.36121 9.34808L10.8612 11.9462L9.12917 12.9462L8.12916 11.2141L7.26314 11.7141L8.26314 13.4462L6.53108 14.4462L5.53109 12.7141L4.66506 13.2141L5.66506 14.9462L4.36603 15.6962L1.86603 11.366Z"
    fill="black" />
</svg>