<svg width="20" height="20" viewBox="0 0 20 20" fill="none" xmlns="http://www.w3.org/2000/svg">
<path d="M17 3H2C1.44772 3 1 3.44772 1 4V14C1 14.5523 1.44772 15 2 15H11V16H2C0.895431 16 0 15.1046 0 14V4C0 2.89543 0.895431 2 2 2H17C18.1046 2 19 2.89543 19 4V10H18V4C18 3.44772 17.5523 3 17 3Z" fill="black"/>
<path d="M5.5 6.5V4.5H4.5V6.5H3V7.5H13.5V9.5H14.5V7.5H16V6.5H5.5Z" fill="black"/>
<path d="M13 12.5H3V11.5H13V12.5Z" fill="black"/>
<path d="M16 18V15H13V14H16V11H17V14H20V15H17V18H16Z" fill="black"/>
</svg>
