<svg width="20" height="20" viewBox="0 0 20 20" fill="none" xmlns="http://www.w3.org/2000/svg">
<path fill-rule="evenodd" clip-rule="evenodd" d="M9 1H10V2H9V1ZM9 3H8V0H11V3H10V17H11V20H8V17H9V3ZM9 18H10V19H9V18ZM8 4H2C0.895447 4 0 4.89543 0 6V14C0 15.1046 0.895447 16 2 16H8V15H2C1.44769 15 1 14.5523 1 14V6C1 5.44771 1.44769 5 2 5H8V4ZM8 9.5H3.5V7.5H2.5V10.5H8V9.5ZM17 16H11V15H17C17.5523 15 18 14.5523 18 14V6C18 5.44771 17.5523 5 17 5H11V4H17C18.1046 4 19 4.89543 19 6V14C19 15.1046 18.1046 16 17 16ZM11 10.5H15.5V12.5H16.5V9.5H11V10.5Z" fill="black"/>
</svg>
