<svg width="20" height="20" viewBox="0 0 20 20" fill="none" xmlns="http://www.w3.org/2000/svg">
<path d="M5 4.5H8.5V0H9.5V4.5L20 4.5V5.5H15.5V10H14.5V5.5L5 5.5V4.5Z" fill="black"/>
<path fill-rule="evenodd" clip-rule="evenodd" d="M8.68198 9.31802C10.3198 10.9559 10.4312 13.5422 9.01611 15.309L12.9853 19.2782L12.2782 19.9853L8.30901 16.0161C6.54216 17.4312 3.95587 17.3198 2.31802 15.682C0.56066 13.9246 0.56066 11.0754 2.31802 9.31802C4.07538 7.56066 6.92462 7.56066 8.68198 9.31802ZM7.97487 14.9749C9.34171 13.608 9.34171 11.392 7.97487 10.0251C6.60804 8.65829 4.39196 8.65829 3.02513 10.0251C1.65829 11.392 1.65829 13.608 3.02513 14.9749C4.39196 16.3417 6.60804 16.3417 7.97487 14.9749Z" fill="black"/>
</svg>
