<svg width="20" height="20" viewBox="0 0 20 20" fill="none" xmlns="http://www.w3.org/2000/svg">
<path d="M3.5 4.5H1V5.5L13.5 5.5V10H14.5V5.5H17V4.5L4.5 4.5V0H3.5L3.5 4.5Z" fill="black"/>
<path d="M6 11V10H5V11H6Z" fill="black"/>
<path d="M6 14V12H5V14H4V15H7V14H6Z" fill="black"/>
<path fill-rule="evenodd" clip-rule="evenodd" d="M5 17.9776C2.19675 17.725 0 15.369 0 12.5C0 9.46243 2.46243 7 5.5 7C8.53757 7 11 9.46243 11 12.5C11 13.02 10.9278 13.5232 10.793 14H20V20H5V17.9776ZM10 12.5C10 14.9853 7.98528 17 5.5 17C3.01472 17 1 14.9853 1 12.5C1 10.0147 3.01472 8 5.5 8C7.98528 8 10 10.0147 10 12.5ZM10.4003 15C9.56069 16.6424 7.91962 17.8071 5.99288 17.9782C5.99525 17.978 5.99763 17.9778 6 17.9776V19H9.5V18H10.5V19H12.5V15H10.4003ZM16.5 17H15.5V19H13.5V15H19V19H16.5V17Z" fill="black"/>
</svg>
