<svg width="20" height="20" viewBox="0 0 20 20" fill="none" xmlns="http://www.w3.org/2000/svg">
<path fill-rule="evenodd" clip-rule="evenodd" d="M7.46895 1.65989C7.1384 1.51445 6.75511 1.55852 6.46621 1.7752L0.700034 6.09982C0.47912 6.2655 0.434348 6.5789 0.600034 6.79981C0.765719 7.02073 1.07912 7.0655 1.30003 6.89981L6.59854 2.92595C6.88745 2.70927 7.27073 2.66519 7.60128 2.81063L15.2987 5.95747C15.5514 6.06868 15.8465 5.95394 15.9577 5.70118C16.0689 5.44842 15.9542 5.15337 15.7014 5.04216L7.46895 1.65989ZM1.5 10.8293L6.4585 7.01513V18.1589L1.5 17.3267V10.8293ZM6.87556 19.2429C6.93484 19.2528 6.99342 19.2519 7.04929 19.2416L19.4132 17.2433C19.6554 17.2042 19.8335 16.9951 19.8335 16.7497V10.5831C19.8335 10.374 19.7033 10.1869 19.5071 10.1143L7.13216 5.53095C7.07572 5.51004 7.01683 5.49978 6.95825 5.49982C6.85175 5.49976 6.7444 5.53358 6.65346 5.60353L0.695145 10.1868C0.572102 10.2815 0.5 10.4279 0.5 10.5831V17.7498C0.5 17.994 0.676404 18.2024 0.917241 18.2429L6.87556 19.2429ZM10.791 10.4692C10.9213 10.3752 11.0889 10.3496 11.2414 10.4005L15.3664 11.7755C15.5706 11.8435 15.7083 12.0346 15.7083 12.2498V16.8291L18.8335 16.3241V10.9311L7.4585 6.71819V18.1624L10.5833 17.6574V10.8748C10.5833 10.7141 10.6606 10.5632 10.791 10.4692ZM14.7083 12.6102V16.9908L11.5833 17.4958V11.5685L14.7083 12.6102Z" fill="black"/>
</svg>
