<svg width="20" height="20" viewBox="0 0 20 20" fill="none" xmlns="http://www.w3.org/2000/svg">
<path d="M2 1H10C10.5523 1 11 1.44772 11 2H12C12 0.895431 11.1046 0 10 0H2C0.895431 0 0 0.895431 0 2V9C0 10.1046 0.895431 11 2 11H6.5V10H2C1.44772 10 1 9.55228 1 9V2C1 1.44772 1.44772 1 2 1Z" fill="black"/>
<path d="M11 12H10V15H17V17H18V14H11V12Z" fill="black"/>
<path d="M7.5 6H9V8H10V5H7.5L7.5 6Z" fill="black"/>
<path d="M4.5 5H3V3H2V6H4.5V5Z" fill="black"/>
<path d="M5.5 2L5.5 9H6.5L6.5 2H5.5Z" fill="black"/>
<path d="M11 4.5H14C14.8284 4.5 15.5 5.17157 15.5 6V8.29289L13.8536 6.64648L13.1465 7.35359L16 10.2071L18.8536 7.35359L18.1465 6.64648L16.5 8.29297V6C16.5 4.61929 15.3807 3.5 14 3.5H11V4.5Z" fill="black"/>
<path d="M19 11C19 10.5124 18.6511 10.1064 18.1893 10.0179L18.9614 9.2458C19.5804 9.58578 20 10.2439 20 11V18C20 19.1046 19.1046 20 18 20H10C8.89543 20 8 19.1046 8 18V11C8 9.89543 8.89543 9 10 9H13L14 10H10C9.44772 10 9 10.4477 9 11V18C9 18.5523 9.44772 19 10 19H18C18.5523 19 19 18.5523 19 18V11Z" fill="black"/>
</svg>
