<svg width="20" height="20" viewBox="0 0 20 20" fill="none" xmlns="http://www.w3.org/2000/svg">
<path fill-rule="evenodd" clip-rule="evenodd" d="M19.5001 0H6V4.49986H7V1H12V6.13278L15.6383 12.4999H11.3004V13.4999H19.5001V0ZM16.7901 12.4999H18.5001V7.02223L15.1493 9.62846L16.7901 12.4999ZM14.6481 8.7514L18.5001 5.75536V1H13V5.86722L14.6481 8.7514Z" fill="black"/>
<path fill-rule="evenodd" clip-rule="evenodd" d="M11.8908 10.0064L1 4.16455V16.4826L3.89739 13.1256L7.29848 19.643L10.6646 17.693L7.23928 11.1292L11.8908 10.0064ZM2 13.7935V5.83573L9.10918 9.64908L5.76072 10.4573L9.33539 17.3073L7.70152 18.2538L4.10261 11.3574L2 13.7935Z" fill="black"/>
</svg>
