<svg width="20" height="20" viewBox="0 0 20 20" fill="none" xmlns="http://www.w3.org/2000/svg">
<path fill-rule="evenodd" clip-rule="evenodd" d="M6.34273 7.25143C6.34273 7.90666 6.27798 8.49714 6.14845 9.02286C6.02655 9.54857 5.84369 9.99429 5.59988 10.36C5.36369 10.7257 5.06655 11.0076 4.70845 11.2057C4.35798 11.4038 3.95416 11.5029 3.49702 11.5029C3.03988 11.5029 2.63226 11.4038 2.27416 11.2057C1.91608 11.0076 1.61512 10.7257 1.3713 10.36C1.1275 9.99429 0.940833 9.54857 0.811304 9.02286C0.689404 8.49714 0.628447 7.90666 0.628447 7.25143C0.628447 6.59619 0.689404 6.00571 0.811304 5.48C0.940833 4.95429 1.1275 4.50857 1.3713 4.14286C1.61512 3.77714 1.91608 3.49523 2.27416 3.29714C2.63226 3.09904 3.03988 3 3.49702 3C3.95416 3 4.35798 3.09904 4.70845 3.29714C5.06655 3.49523 5.36369 3.77714 5.59988 4.14286C5.84369 4.50857 6.02655 4.95429 6.14845 5.48C6.27798 6.00571 6.34273 6.59619 6.34273 7.25143ZM4.93702 7.25143C4.93702 6.96951 4.91798 6.64951 4.87988 6.29143C4.8494 5.93333 4.78083 5.59429 4.67416 5.27429C4.57512 4.95429 4.43036 4.68761 4.23988 4.47429C4.0494 4.25333 3.80179 4.14286 3.49702 4.14286C3.18465 4.14286 2.93322 4.25333 2.74273 4.47429C2.55226 4.68761 2.40369 4.95429 2.29702 5.27429C2.19798 5.59429 2.1294 5.93333 2.0913 6.29143C2.05322 6.64951 2.03416 6.96951 2.03416 7.25143C2.03416 7.53333 2.05322 7.85333 2.0913 8.21143C2.1294 8.56952 2.19798 8.90476 2.29702 9.21714C2.40369 9.52952 2.55226 9.79619 2.74273 10.0171C2.93322 10.2305 3.18465 10.3371 3.49702 10.3371C3.80179 10.3371 4.0494 10.2305 4.23988 10.0171C4.43036 9.79619 4.57512 9.52952 4.67416 9.21714C4.78083 8.90476 4.8494 8.56952 4.87988 8.21143C4.91798 7.85333 4.93702 7.53333 4.93702 7.25143ZM14.7774 11.2971L16.8574 8.29143L16.846 8.28C16.7317 8.33333 16.5907 8.37143 16.4231 8.39429C16.2631 8.41714 16.1145 8.42857 15.9774 8.42857C15.6192 8.42857 15.2841 8.3638 14.9717 8.23429C14.6592 8.09714 14.385 7.91429 14.1488 7.68571C13.9127 7.44951 13.726 7.17523 13.5888 6.86286C13.4592 6.54286 13.3945 6.2 13.3945 5.83429C13.3945 5.40761 13.4707 5.01904 13.6231 4.66857C13.7755 4.31809 13.9812 4.02094 14.2402 3.77714C14.507 3.52571 14.8192 3.33523 15.1774 3.20571C15.5431 3.06857 15.9317 3 16.3431 3C16.7621 3 17.1507 3.07237 17.5088 3.21714C17.8745 3.35429 18.1907 3.54857 18.4574 3.8C18.7241 4.05143 18.9298 4.34857 19.0745 4.69143C19.227 5.02666 19.3031 5.38857 19.3031 5.77714C19.3031 6.00571 19.2841 6.22286 19.246 6.42857C19.2078 6.62666 19.1507 6.82094 19.0745 7.01143C19.006 7.19429 18.9184 7.38094 18.8117 7.57143C18.7127 7.7619 18.5984 7.96 18.4688 8.16571L16.446 11.2971H14.7774ZM17.9088 5.74286C17.9088 5.52951 17.8707 5.32761 17.7945 5.13714C17.726 4.94666 17.6231 4.77904 17.486 4.63429C17.3488 4.4819 17.185 4.3638 16.9945 4.28C16.8041 4.18857 16.5907 4.14286 16.3545 4.14286C15.8898 4.14286 15.5127 4.29523 15.2231 4.6C14.9412 4.89714 14.8002 5.28571 14.8002 5.76571C14.8002 5.99429 14.8345 6.20761 14.9031 6.40571C14.9792 6.59619 15.086 6.76 15.2231 6.89714C15.3602 7.03429 15.5202 7.14476 15.7031 7.22857C15.8935 7.30476 16.1031 7.34286 16.3317 7.34286C16.5602 7.34286 16.7698 7.30476 16.9602 7.22857C17.1584 7.15237 17.326 7.04571 17.4631 6.90857C17.6078 6.7638 17.7184 6.59237 17.7945 6.39429C17.8707 6.19619 17.9088 5.97904 17.9088 5.74286ZM0 15.7612H5.71429V17.1898H0V15.7612ZM12.8574 15.7612H7.14307V17.1898H12.8574V15.7612ZM14.2856 15.7612H19.9999V17.1898H14.2856V15.7612Z" fill="black"/>
</svg>
