<svg width="20" height="20" viewBox="0 0 20 20" fill="none" xmlns="http://www.w3.org/2000/svg">
<path d="M15.917 10C15.4409 12.8377 12.9729 15 9.99991 15C7.02692 15 4.55895 12.8377 4.08287 10H3.0708C3.55603 13.3923 6.47344 16 9.99991 16C11.4748 16 12.8431 15.5439 13.9716 14.765L17.297 18.9218C17.4695 19.1374 17.7842 19.1724 17.9998 18.9998C18.2154 18.8273 18.2504 18.5127 18.0779 18.2971L14.7521 14.1398C15.9034 13.0748 16.6962 11.6277 16.929 10H15.917Z" fill="black"/>
<path d="M16.3263 6C15.2028 3.63505 12.7923 2 9.99991 2C7.20752 2 4.79701 3.63505 3.67354 6H4.80261C5.84003 4.2066 7.77907 3 9.99991 3C12.2208 3 14.1598 4.2066 15.1972 6H16.3263Z" fill="black"/>
<path d="M13.25 7.44332L11.486 5L8.01007 10.1586L6.26759 7.44332H1.51942C1.23255 7.44332 1 7.67587 1 7.96274C1 8.24961 1.23255 8.48217 1.51942 8.48217H5.73241L7.98993 12L11.514 6.77009L12.75 8.48217H18.4806C18.7674 8.48217 19 8.24961 19 7.96274C19 7.67587 18.7674 7.44332 18.4806 7.44332H13.25Z" fill="black"/>
</svg>
