<svg width="16" height="16" viewBox="0 0 16 16" fill="none" xmlns="http://www.w3.org/2000/svg">
<g clip-path="url(#clip0_345_613)">
<path fill-rule="evenodd" clip-rule="evenodd" d="M16 4.5C16 6.98528 13.9853 9 11.5 9C9.01472 9 7 6.98528 7 4.5C7 2.01472 9.01472 0 11.5 0C13.9853 0 16 2.01472 16 4.5ZM11.5 8C13.2632 8 14.7219 6.69615 14.9646 5H11V1.03544C9.30385 1.27806 8 2.73676 8 4.5C8 6.433 9.567 8 11.5 8ZM12 4H14.9646C14.7453 2.46715 13.5328 1.2547 12 1.03544V4Z" fill="black"/>
<path fill-rule="evenodd" clip-rule="evenodd" d="M2 4C2.93192 4 3.71497 4.63739 3.93699 5.5H6.13158V12.5H10.7929L9.64645 11.3536L10.3536 10.6465L12.0953 12.3882C12.3538 11.5829 13.1088 11 14 11C15.1046 11 16 11.8954 16 13C16 14.1046 15.1046 15 14 15C13.1088 15 12.3538 14.4171 12.0953 13.6118L10.3536 15.3536L9.64645 14.6465L10.7929 13.5H5.13158V6.5H3.93699C3.71497 7.36261 2.93192 8 2 8C0.895431 8 0 7.10457 0 6C0 4.89543 0.895431 4 2 4ZM2 7C2.55228 7 3 6.55228 3 6C3 5.44772 2.55228 5 2 5C1.44772 5 1 5.44772 1 6C1 6.55228 1.44772 7 2 7ZM14 14C14.5523 14 15 13.5523 15 13C15 12.4477 14.5523 12 14 12C13.4477 12 13 12.4477 13 13C13 13.5523 13.4477 14 14 14Z" fill="black"/>
</g>
<defs>
<clipPath id="clip0_345_613">
<rect width="16" height="16" fill="white"/>
</clipPath>
</defs>
</svg>
