<svg width="16" height="16" viewBox="0 0 16 16" fill="none" xmlns="http://www.w3.org/2000/svg">
<g clip-path="url(#clip0_345_609)">
<path d="M7 6C7 6.55228 6.55228 7 6 7C5.44772 7 5 6.55228 5 6C5 5.44772 5.44772 5 6 5C6.55228 5 7 5.44772 7 6Z" fill="black"/>
<path fill-rule="evenodd" clip-rule="evenodd" d="M6 10C8.20914 10 10 8.20914 10 6C10 3.79086 8.20914 2 6 2C3.79086 2 2 3.79086 2 6C2 8.20914 3.79086 10 6 10ZM9 6C9 7.65685 7.65685 9 6 9C4.34315 9 3 7.65685 3 6C3 4.34315 4.34315 3 6 3C7.65685 3 9 4.34315 9 6Z" fill="black"/>
<path fill-rule="evenodd" clip-rule="evenodd" d="M0 16V0H16V16H0ZM1 1H15L15 4.99992L4.99993 15H1V1ZM6.41414 15L15 6.41414V8.07098L8.07099 15H6.41414ZM9.4852 15H11.0001L15 10.9999V9.4852L9.4852 15ZM12.4141 15H15V12.4141L12.4141 15Z" fill="black"/>
</g>
<defs>
<clipPath id="clip0_345_609">
<rect width="16" height="16" fill="white"/>
</clipPath>
</defs>
</svg>
