<svg width="16" height="16" viewBox="0 0 16 16" fill="none" xmlns="http://www.w3.org/2000/svg">
<path fill-rule="evenodd" clip-rule="evenodd" d="M2 0V9H3V1H10V5H14V9H15V3.6L11.4 0H2ZM14 4H11V1H11.31L14 3.69V4ZM1.5 13.5C2.05228 13.5 2.5 13.9477 2.5 14.5C2.5 15.0523 2.05228 15.5 1.5 15.5C0.947715 15.5 0.5 15.0523 0.5 14.5C0.5 13.9477 0.947715 13.5 1.5 13.5ZM14.57 10H15.62L14.005 15.059H13.011L11.421 10H12.468L13.512 13.317L14.57 10ZM4 11V14H6V15H3V10H6V11H4ZM8 11V12H10V15H7V14H9V13H7V10H10V11H8Z" fill="#151515"/>
</svg>
