<svg xmlns="http://www.w3.org/2000/svg" width="16" height="16" viewBox="0 0 16 16" fill="none">
  <path fill-rule="evenodd" clip-rule="evenodd" d="M16 1H0V15H16V1ZM15 2H1V4H15V2ZM15 14V5H5V14H15ZM4 14V5H1V14H4ZM11.1166 7.20317C10.5275 6.61486 9.8204 6.39571 8.99525 6.54572C8.93329 6.55744 8.87924 6.58673 8.83763 6.62775C8.76908 6.69572 8.73422 6.79534 8.75282 6.8973C8.76381 6.95706 8.79296 7.01332 8.83617 7.05668L10.0501 8.26963C10.1679 8.38799 10.1679 8.57901 10.0501 8.69738L9.19667 9.55054C9.07889 9.66774 8.88788 9.66774 8.7701 9.55054L7.55618 8.33643C7.43841 8.21806 7.24739 8.21806 7.12962 8.33643C7.08626 8.37979 7.05711 8.43487 7.04612 8.49581C6.96263 8.95286 6.99251 9.37358 7.13563 9.75798C7.2512 10.0674 7.44046 10.3533 7.7034 10.617C8.41971 11.3331 9.47396 11.5053 10.3526 11.1327L11.5434 12.3233C11.7789 12.5589 12.1609 12.5589 12.3966 12.3233L12.8233 11.8967C13.0589 11.6612 13.0589 11.2791 12.8233 11.0436L11.6326 9.8529C12.0048 8.97396 11.8328 7.91922 11.1166 7.20317Z" fill="white"/>
</svg>