<svg width="16" height="16" viewBox="0 0 16 16" fill="none" xmlns="http://www.w3.org/2000/svg">
<path fill-rule="evenodd" clip-rule="evenodd" d="M4.86035 1H6V4H7V0H0V16H7V10H6V14.1399L4.0974 11.4762L5.52347 9.09943L4.96686 5.75979L3.69703 4.48996L4.86035 1ZM3.80626 1H1V5.9596L2.57235 4.70172L3.80626 1ZM3.2406 5.44774L1 7.24022V12.1911L3.14612 11.118L4.47655 8.90065L4.03315 6.24029L3.2406 5.44774ZM3.34147 12.1384L5.38548 15H1V13.3091L3.34147 12.1384Z" fill="black"/>
<path d="M9.29286 6.5L8.14645 5.35359L8.85356 4.64648L11.2071 7.00004L8.85356 9.35359L8.14645 8.64648L9.29294 7.5H6V6.5H9.29286Z" fill="black"/>
<path fill-rule="evenodd" clip-rule="evenodd" d="M10 1H13.3063L11.9483 5.07379L15 9.65129V15H10V10H9V16H16V0H9V4H10V1ZM13.0517 4.92603L14.3604 1H15V7.84851L13.0517 4.92603Z" fill="black"/>
</svg>
