<svg width="16" height="16" viewBox="0 0 16 16" fill="none" xmlns="http://www.w3.org/2000/svg">
<path fill-rule="evenodd" clip-rule="evenodd" d="M9.51299 3.46949L13.8371 11.5H2.2235L5.38176 4.55182L7.43087 7.1132L9.51299 3.46949ZM7.79016 8.5H11.086L9.48701 5.53051L7.79016 8.5ZM11.6244 9.5H4.23105L3.7765 10.5H12.1629L11.6244 9.5ZM7.25968 8.5H4.68559L5.61823 6.44819L7.25968 8.5Z" fill="black"/>
<path fill-rule="evenodd" clip-rule="evenodd" d="M16 14.2903C16 14.2903 12.8 12.6903 8 14.2903C3.2 15.8903 0 14.2903 0 14.2903L2.133 1.48732C4.04222 2.09007 6.09078 2.09007 8 1.48732C9.9094 0.885737 11.9576 0.885737 13.867 1.48732L16 14.2903ZM7.684 13.3403C9.14122 12.8447 10.6688 12.5874 12.208 12.5783C13.0611 12.5761 13.912 12.6656 14.746 12.8453L12.986 2.28632C12.2385 2.11115 11.4738 2.01992 10.706 2.01432C9.90956 1.99932 9.11753 2.13574 8.372 2.41632C7.39022 2.79309 6.34548 2.97875 5.294 2.96332C4.5037 2.95965 3.71564 2.87893 2.941 2.72232L1.123 13.6373C1.99132 13.8842 2.8903 14.0064 3.793 14.0003C5.1167 13.9907 6.43122 13.7679 7.684 13.3403Z" fill="black"/>
</svg>
