<svg width="16" height="16" viewBox="0 0 16 16" fill="none" xmlns="http://www.w3.org/2000/svg">
<path fill-rule="evenodd" clip-rule="evenodd" d="M13 1V2.49971H12.9422L7.94444 7.68869V15.51C7.94444 15.7806 7.73658 16 7.48016 16C7.35833 16 7.24139 15.9495 7.15455 15.8593L5.05556 13.68V7.68119L0.065 2.49971H0V1H13ZM12.0714 1.97996H0.928571V2.02112L5.98413 7.27058L5.98371 13.2691L7.01536 14.3402L7.01587 7.27808L12.0714 2.02798V1.97996Z" fill="black"/>
<path fill-rule="evenodd" clip-rule="evenodd" d="M10.3586 14.1179L9 14.8783V13.7323L9.75 13.3125V9.79183L9 10.2116V9.06562L10.4016 8.28118L12.4505 9.61223L15.25 8V13.8248L12.3439 15.4513L10.3586 14.1179ZM10.75 9.70001V13.1762L12 14.0157V10.5121L10.75 9.70001ZM13 10.4497L14.25 9.72987V13.2385L13 13.9381V10.4497Z" fill="black"/>
</svg>
