<svg width="16" height="16" viewBox="0 0 16 16" fill="none" xmlns="http://www.w3.org/2000/svg">
<path fill-rule="evenodd" clip-rule="evenodd" d="M2.5 5C2.6109 5 2.71898 4.98797 2.82302 4.96513C2.63208 5.29015 2.47087 5.63474 2.34313 5.99516C1.03549 5.9142 0 4.82802 0 3.5C0 2.11929 1.11929 1 2.5 1C3.65681 1 4.63012 1.78571 4.91536 2.85259C4.58864 3.0488 4.28215 3.27523 3.99974 3.52802L4 3.5C4 2.67157 3.32843 2 2.5 2C1.67157 2 1 2.67157 1 3.5C1 4.32843 1.67157 5 2.5 5ZM1 13.5C1 12.3432 1.78571 11.3699 2.85259 11.0846C3.0488 11.4114 3.27523 11.7178 3.52802 12.0003L3.5 12C2.67157 12 2 12.6716 2 13.5C2 14.3284 2.67157 15 3.5 15C4.32843 15 5 14.3284 5 13.5C5 13.3891 4.98797 13.281 4.96513 13.177C5.29015 13.3679 5.63473 13.5291 5.99516 13.6569C5.9142 14.9645 4.82802 16 3.5 16C2.11929 16 1 14.8807 1 13.5ZM16 4.5C16 5.74062 15.0963 6.77018 13.9113 6.96633C13.8531 6.6312 13.7671 6.3056 13.6558 5.99201C14.411 5.91409 15 5.27583 15 4.5C15 3.67157 14.3284 3 13.5 3C12.9538 3 12.4757 3.29197 12.2134 3.72836C11.9744 3.49253 11.7156 3.27663 11.4398 3.08334C11.8907 2.42895 12.6453 2 13.5 2C14.8807 2 16 3.11929 16 4.5ZM12 8C12 10.2091 10.2091 12 8 12C5.79086 12 4 10.2091 4 8C4 5.79086 5.79086 4 8 4C10.2091 4 12 5.79086 12 8ZM13 8C13 10.7614 10.7614 13 8 13C5.23858 13 3 10.7614 3 8C3 5.23858 5.23858 3 8 3C10.7614 3 13 5.23858 13 8Z" fill="black"/>
</svg>
