<svg width="16" height="16" viewBox="0 0 16 16" fill="none" xmlns="http://www.w3.org/2000/svg">
<path d="M1 1H6V5H7V0H0V2H1V1Z" fill="black"/>
<path d="M1 8H0V16H7V11H6V15H1V8Z" fill="black"/>
<path d="M8 16V11H9V15H15V1H9V5H8V0H16V16H8Z" fill="black"/>
<path fill-rule="evenodd" clip-rule="evenodd" d="M11 6V3H14V6H11ZM12 4H13V5H12V4Z" fill="black"/>
<path fill-rule="evenodd" clip-rule="evenodd" d="M2 10V13H5V10H2ZM4 11H3V12H4V11Z" fill="black"/>
<path fill-rule="evenodd" clip-rule="evenodd" d="M10 11V14H13V11H10ZM12 12H11V13H12V12Z" fill="black"/>
<path d="M7.14645 6.35359L8.29286 7.5H5V8.5H8.29294L7.14645 9.64648L7.85356 10.3536L10.2071 8.00004L7.85356 5.64648L7.14645 6.35359Z" fill="black"/>
<path d="M0 3H3V4H0V3Z" fill="black"/>
<path d="M3 5H0V6H3V5Z" fill="black"/>
</svg>
