<svg width="16" height="16" viewBox="0 0 16 16" fill="none" xmlns="http://www.w3.org/2000/svg">
<path fill-rule="evenodd" clip-rule="evenodd" d="M1 1H15V10H12.95C12.7512 9.02043 11.9796 8.24885 11 8.05001V6H10V8.05001C9.02044 8.24885 8.24885 9.02043 8.05001 10H6V11H8.05001C8.24885 11.9796 9.02043 12.7512 10 12.95V15H1V1ZM11 15H15V11H12.95C12.7512 11.9796 11.9796 12.7512 11 12.95V15ZM0 16V0H16V16H0ZM8 4H3V3H8V4ZM3 6H7V5H3V6ZM3 8H6V7H3V8ZM10.5 9C9.67157 9 9 9.67157 9 10.5C9 11.3284 9.67157 12 10.5 12C11.3284 12 12 11.3284 12 10.5C12 9.67157 11.3284 9 10.5 9Z" fill="black"/>
</svg>
