<svg width="16" height="16" viewBox="0 0 16 16" fill="none" xmlns="http://www.w3.org/2000/svg">
<g clip-path="url(#clip0_628_2182)">
<path fill-rule="evenodd" clip-rule="evenodd" d="M4.34815 2.227C4.58015 2.059 4.78815 1.907 4.95015 1.776L4.32015 1C4.16915 1.122 3.97615 1.262 3.76015 1.418C2.66215 2.217 1.00015 3.421 1.00015 5.007C0.992846 5.67225 1.25389 6.31239 1.72433 6.78282C2.19476 7.25326 2.8349 7.5143 3.50015 7.507C4.54515 7.507 5.45415 6.505 6.25515 5.621C6.63415 5.204 7.26715 4.507 7.50015 4.507C7.63342 4.50481 7.76187 4.55679 7.85611 4.65104C7.95036 4.74528 8.00233 4.87373 8.00015 5.007C7.85561 5.72239 7.56487 6.40021 7.14615 6.998C6.52003 7.89018 6.12616 8.92435 6.00015 10.007C5.99853 10.8177 6.33828 11.5915 6.93615 12.139C8.22737 13.1603 9.86003 13.6497 11.5001 13.507H11.5771C12.7534 14.4545 14.169 15.0577 15.6671 15.25L15.8331 14.264C14.838 14.1126 13.8773 13.7869 12.9951 13.302C14.7169 12.8272 15.9328 11.2918 16.0001 9.507C16.0236 8.70438 15.7151 7.92761 15.1473 7.35983C14.5795 6.79205 13.8028 6.48353 13.0001 6.507C11.2621 6.507 10.0001 7.979 10.0001 10.007C9.98807 10.892 10.2348 11.7613 10.7101 12.508C9.58797 12.4984 8.5014 12.1129 7.62415 11.413C7.22537 11.0546 6.99838 10.5432 7.00015 10.007C7.14108 9.10252 7.48838 8.24264 8.01515 7.494C8.53837 6.7561 8.87623 5.90305 9.00015 5.007C9.00393 4.60803 8.8471 4.2243 8.56498 3.94217C8.28285 3.66005 7.89912 3.50322 7.50015 3.507C6.82415 3.507 6.21715 4.176 5.51515 4.949C4.88515 5.644 4.10215 6.507 3.50015 6.507C3.0996 6.51612 2.71275 6.36101 2.42944 6.07771C2.14614 5.7944 1.99103 5.40755 2.00015 5.007C2.00015 3.932 3.41315 2.907 4.34815 2.227ZM13.0001 7.507C13.5332 7.49826 14.047 7.70617 14.424 8.08315C14.801 8.46013 15.0089 8.97394 15.0001 9.507C14.8952 11.133 13.5802 12.4178 11.9521 12.485C11.3215 11.8162 10.9795 10.926 11.0001 10.007C11.0001 8.559 11.8411 7.507 13.0001 7.507Z" fill="black"/>
</g>
<defs>
<clipPath id="clip0_628_2182">
<rect width="16" height="16" fill="white"/>
</clipPath>
</defs>
</svg>
