<svg width="16" height="16" viewBox="0 0 16 16" fill="none" xmlns="http://www.w3.org/2000/svg">
<path fill-rule="evenodd" clip-rule="evenodd" d="M1.89774 8.69035C1.46343 9.22746 1.09998 9.67695 1.09998 10.36C1.10434 11.1485 1.42984 11.9012 2.00141 12.4445C2.57297 12.9877 3.34123 13.2746 4.12898 13.239C4.35601 13.239 4.58439 13.2147 4.82466 13.1892C5.09132 13.1608 5.37262 13.131 5.68298 13.131C6.79764 13.131 7.64525 13.5467 8.52032 13.9758C9.45401 14.4337 10.419 14.907 11.773 14.907C14.14 14.907 14.9 12.904 14.9 10.469C14.9 5.58296 11.925 1.10696 7.79598 1.10696C6.6688 1.01667 5.55381 1.39194 4.71061 2.1454C3.86741 2.89886 3.36957 3.96477 3.33298 5.09496C3.23828 7.03251 2.49991 7.94565 1.89774 8.69035ZM7.79498 2.10696C11.162 2.10696 13.9 5.85896 13.9 10.47C13.9 13.908 12.355 13.907 11.773 13.907C10.7819 13.8653 9.81617 13.5807 8.96098 13.078C7.96084 12.5022 6.83609 12.1772 5.68298 12.131C5.36105 12.1348 5.03958 12.1562 4.71998 12.195C4.52354 12.2199 4.32594 12.2346 4.12798 12.239C4.10798 12.239 2.09998 12.217 2.09998 10.36C2.09998 10.057 2.24998 9.84696 2.67498 9.31896C3.71086 8.1715 4.29905 6.68948 4.33198 5.14396C4.35746 4.27063 4.7451 3.44726 5.40198 2.87118C6.05887 2.29511 6.92579 2.01825 7.79498 2.10696Z" fill="black"/>
<path opacity="0.25" d="M11.773 13.9066C10.7818 13.8647 9.81608 13.5796 8.96098 13.0766C7.96075 12.5012 6.83601 12.1766 5.68298 12.1306C5.36105 12.1345 5.03958 12.1558 4.71998 12.1946C4.52354 12.2195 4.32594 12.2342 4.12798 12.2386C4.10798 12.2386 2.09998 12.2166 2.09998 10.3596C2.09998 10.0566 2.24998 9.8456 2.67498 9.3196C3.71108 8.17188 4.29929 6.68947 4.33198 5.1436C4.35746 4.27027 4.7451 3.4469 5.40198 2.87082C6.05887 2.29474 6.92579 2.01788 7.79498 2.1066C11.162 2.1066 13.9 5.8586 13.9 10.4686C13.9 13.9066 12.355 13.9066 11.773 13.9066Z" fill="black"/>
</svg>
