<svg width="16" height="16" viewBox="0 0 16 16" fill="none" xmlns="http://www.w3.org/2000/svg">
<g clip-path="url(#clip0_346_369)">
<path fill-rule="evenodd" clip-rule="evenodd" d="M8.05169 0.5L8.09733 0.5C9.12926 0.499991 9.84623 0.732777 10.3692 1.14245C10.8797 1.54231 11.1456 2.06879 11.354 2.49637L11.3818 2.55342C11.5901 2.98128 11.7417 3.29271 11.9965 3.52626C12.234 3.74395 12.6103 3.93093 13.3535 3.93093C13.825 3.93093 14.2331 4.01107 14.5692 4.18894C14.9141 4.3715 15.1532 4.6416 15.3011 4.96402C15.5798 5.5715 15.5194 6.33423 15.3988 7.01928C15.3209 7.4625 15.2009 7.94914 15.0882 8.40598L15.0882 8.40605L15.0882 8.40608C15.026 8.65831 14.966 8.90145 14.9166 9.12319C14.8437 9.45056 14.7893 9.74563 14.766 10.0032C14.7424 10.2649 14.7542 10.4555 14.7908 10.5868C14.9426 11.1319 14.8917 11.7351 14.7304 12.2996C14.5678 12.8685 14.2836 13.4329 13.925 13.9192C13.5677 14.4037 13.1209 14.8318 12.6197 15.1053C12.1156 15.3804 11.5291 15.5114 10.9354 15.3389C10.2411 15.1372 9.83686 15.0832 9.54856 15.0877C9.2827 15.0919 9.09328 15.1441 8.79752 15.2257L8.735 15.2429C8.02686 15.4376 7.08325 15.6479 4.63717 15.3552C3.37707 15.2044 2.43761 14.8299 1.76973 14.2833C1.09611 13.7321 0.734118 13.0345 0.584709 12.3087C0.292755 10.8904 0.808437 9.36703 1.31597 8.45598C1.41913 8.2708 1.52001 8.10447 1.61643 7.94548L1.61645 7.94545C1.83278 7.58877 2.02671 7.26901 2.17385 6.85607C2.37093 6.30298 2.46665 5.59606 2.24461 4.53318C2.10838 3.88109 2.34823 3.30895 2.7397 2.85143C3.12287 2.40361 3.67551 2.03205 4.26709 1.72764C5.45465 1.11656 6.94219 0.704269 8.0068 0.508264L8.05169 0.5ZM8.14252 1.50017C7.14056 1.68859 5.78062 2.07345 4.72464 2.61683C4.18644 2.89377 3.76259 3.19411 3.49952 3.50156C3.24474 3.79933 3.16857 4.06586 3.22348 4.32869C3.47926 5.55309 3.38069 6.44842 3.11584 7.19172C2.93251 7.70622 2.65729 8.16061 2.42185 8.54931L2.42183 8.54935C2.33723 8.68901 2.25777 8.8202 2.18956 8.94264C1.74144 9.74706 1.33988 11.0175 1.56417 12.1071C1.67289 12.6352 1.92739 13.1202 2.40303 13.5094C2.88439 13.9033 3.62695 14.2272 4.756 14.3623C7.08822 14.6414 7.90028 14.4353 8.46998 14.2787L8.5463 14.2576L8.54631 14.2576C8.83036 14.1786 9.13479 14.094 9.53289 14.0878C9.9627 14.0811 10.4752 14.1638 11.2144 14.3786C11.4892 14.4584 11.801 14.4129 12.1408 14.2275C12.4835 14.0405 12.8263 13.7243 13.1201 13.3257C13.4127 12.9289 13.6412 12.4714 13.7689 12.0248C13.8978 11.5737 13.9145 11.1677 13.8275 10.8551C13.7446 10.5575 13.7415 10.23 13.7701 9.91319C13.7991 9.59219 13.8642 9.24843 13.9406 8.90569C14.001 8.63463 14.0665 8.36987 14.1311 8.10917C14.2372 7.68046 14.3407 7.26274 14.414 6.84602C14.5324 6.173 14.5316 5.68487 14.3922 5.38101C14.3311 5.24776 14.2417 5.14707 14.1013 5.07276C13.9521 4.99375 13.7181 4.93093 13.3535 4.93093C12.4243 4.93093 11.7851 4.68904 11.3208 4.26343C10.9194 3.8955 10.6886 3.41766 10.5022 3.0317L10.5022 3.03169L10.5022 3.03168L10.4551 2.93454C10.2455 2.50438 10.0634 2.17312 9.75259 1.92969C9.45948 1.7001 8.99317 1.50677 8.14252 1.50017ZM7.92447 3.5L7.96929 3.5C8.60168 3.49999 9.06875 3.64031 9.42064 3.91084C9.76111 4.1726 9.9346 4.51562 10.0564 4.76078L10.0588 4.76566C10.1933 5.03651 10.2651 5.18107 10.3833 5.28741C10.4746 5.36955 10.6409 5.46637 11.0385 5.46637C11.6052 5.46637 12.0764 5.61638 12.3696 5.99701C12.6445 6.35395 12.6672 6.79789 12.6461 7.14485C12.6307 7.39838 12.5835 7.68236 12.5423 7.93033C12.5272 8.02117 12.5128 8.10718 12.5012 8.18509C12.4511 8.52074 12.4441 8.73358 12.481 8.86349C12.587 9.23716 12.5348 9.66814 12.4286 10.0523C12.3189 10.4494 12.1338 10.8604 11.9055 11.2244C11.6795 11.5849 11.3937 11.9267 11.068 12.1608C10.7463 12.3919 10.3127 12.5653 9.85007 12.4199C9.11725 12.1895 8.73359 12.1466 8.52437 12.1613C8.36232 12.1727 8.30457 12.2148 8.19927 12.2986L8.16905 12.3228C8.0291 12.4357 7.80517 12.6163 7.42185 12.6778C7.04507 12.7382 6.55957 12.6799 5.86261 12.4808C4.95872 12.2225 4.32747 11.9112 3.93705 11.525C3.51421 11.1066 3.39819 10.6234 3.4868 10.1514C3.56678 9.72546 3.80824 9.33745 4.01808 9.03562C4.10895 8.90491 4.19144 8.79274 4.2657 8.69177L4.26574 8.69172C4.3874 8.52629 4.48697 8.3909 4.56513 8.25319C4.62526 8.14726 4.6961 8.03513 4.7551 7.94175C4.78359 7.89665 4.80932 7.85593 4.82974 7.82239C4.90257 7.70279 4.95409 7.60458 4.99019 7.49866C5.05771 7.30059 5.09704 6.99952 4.96905 6.39819C4.79738 5.59161 5.31096 4.90041 5.85891 4.44959C6.42934 3.98028 7.19167 3.63242 7.88038 3.50797L7.92447 3.5ZM8.0145 4.50031C7.50423 4.60145 6.92072 4.87095 6.49425 5.22182C6.03307 5.60125 5.8956 5.94785 5.94714 6.19001C6.09818 6.89959 6.08149 7.39659 5.93671 7.82131C5.86667 8.02679 5.77296 8.19615 5.68385 8.34249C5.64465 8.40686 5.61065 8.46041 5.57869 8.51074L5.57867 8.51077C5.52972 8.58785 5.48555 8.65741 5.43481 8.74681C5.32929 8.93273 5.168 9.15317 5.02165 9.35319L5.02163 9.35322C4.95559 9.44347 4.8926 9.52956 4.83915 9.60644C4.63731 9.89678 4.50739 10.1348 4.46963 10.336C4.44051 10.4911 4.46037 10.636 4.64035 10.8141C4.85274 11.0242 5.29125 11.2775 6.13734 11.5192C6.79102 11.706 7.10586 11.7157 7.26357 11.6904C7.38142 11.6715 7.42359 11.6379 7.56071 11.5287L7.57667 11.516C7.75871 11.3712 8.00698 11.1953 8.4541 11.1638C8.85405 11.1356 9.38273 11.2248 10.1499 11.4659C10.1904 11.4786 10.2932 11.4861 10.4845 11.3487C10.6716 11.2142 10.8753 10.9849 11.0583 10.6931C11.2392 10.4046 11.3829 10.0822 11.4648 9.78589C11.5502 9.47664 11.5524 9.25443 11.519 9.13651C11.4163 8.77483 11.4636 8.36267 11.5122 8.03734C11.5295 7.9214 11.5476 7.81298 11.5647 7.70987L11.5648 7.70973L11.5648 7.70964L11.5648 7.70962C11.6025 7.48338 11.6359 7.28267 11.648 7.08413C11.6655 6.79558 11.6222 6.66546 11.5774 6.60722C11.5508 6.57266 11.4484 6.46637 11.0385 6.46637C10.4596 6.46637 10.033 6.31739 9.71445 6.03083C9.44794 5.79106 9.2957 5.4806 9.18894 5.2629L9.16072 5.20558C9.03833 4.95914 8.95023 4.81057 8.81114 4.70363C8.68751 4.60858 8.46748 4.50667 8.0145 4.50031ZM8 9C8.55229 9 9 8.55229 9 8C9 7.44772 8.55229 7 8 7C7.44772 7 7 7.44772 7 8C7 8.55229 7.44772 9 8 9Z" fill="black"/>
</g>
<defs>
<clipPath id="clip0_346_369">
<rect width="16" height="16" fill="white"/>
</clipPath>
</defs>
</svg>
