<svg width="16" height="16" viewBox="0 0 16 16" fill="none" xmlns="http://www.w3.org/2000/svg">
<path fill-rule="evenodd" clip-rule="evenodd" d="M2.5 6.70833L0 5.25V1.75L3 0L5.5 1.45833L8 0L10.5 1.45833L13 0L16 1.75V5.25L13.5 6.70833V9.04167L16 10.5V14L13 15.75L10 14V11.0882L8 9.92155L5.5 11.3799L2.5 9.62988V6.70833ZM1 2.32437L3 1.1577L5 2.32437V4.67155L2.9965 5.84026L1 4.67563V2.32437ZM12.5 9.04167L10.4881 10.2153L8.5 9.05551V6.70833L10.5 5.54167L12.5 6.70833V9.04167ZM11 11.0882V13.4256L13 14.5923L15 13.4256V11.0744L13.0119 9.91463L11 11.0882ZM15 4.67563L13.0035 5.84026L11 4.67155V2.32437L13 1.1577L15 2.32437V4.67563ZM10 2.32437V4.67155L8 5.83822L6 4.67155V2.32437L8 1.1577L10 2.32437ZM5.5 5.54167L7.5 6.70833V9.05551L5.5 10.2222L3.5 9.05551V6.70833L5.5 5.54167Z" fill="black"/>
</svg>
