<svg width="16" height="16" viewBox="0 0 16 16" fill="none" xmlns="http://www.w3.org/2000/svg">
<path fill-rule="evenodd" clip-rule="evenodd" d="M4 2H2V4H4V2ZM2 1H1V2V4V5H2H4H5V4V2V1H4H2ZM1.38118 6L0 14.2903C0 14.2903 3.2 15.8903 8 14.2903C12.8 12.6903 16 14.2903 16 14.2903L13.867 1.48732C11.9576 0.885737 9.9094 0.885737 8 1.48732C7.34595 1.69381 6.67555 1.82956 6 1.89457V2.94346C6.81106 2.88583 7.61047 2.70857 8.372 2.41632C9.11753 2.13574 9.90956 1.99932 10.706 2.01432C11.4738 2.01992 12.2385 2.11115 12.986 2.28632L14.746 12.8453C13.912 12.6656 13.0611 12.5761 12.208 12.5783C10.6688 12.5874 9.14122 12.8447 7.684 13.3403C6.43122 13.7679 5.1167 13.9907 3.793 14.0003C2.8903 14.0064 1.99132 13.8842 1.123 13.6373L2.39507 6H1.38118ZM10 5H8V7H10V5ZM7 4V7H4V11H7H8H11V8V7V4H7ZM5 10V8H7V10H5ZM8 8H10V10H8V8Z" fill="black"/>
</svg>
