<svg width="16" height="16" viewBox="0 0 16 16" fill="none" xmlns="http://www.w3.org/2000/svg">
<path fill-rule="evenodd" clip-rule="evenodd" d="M13 11L12 5H4L3 11H13ZM4.84713 6L4.59713 7.5H6.2975L6.4475 6H4.84713ZM4.18046 10L4.43046 8.5H6.1975L6.0475 10H4.18046ZM7.05248 10L7.20248 8.5H8.7975L8.9475 10H7.05248ZM9.95248 10L9.80248 8.5H11.5695L11.8195 10H9.95248ZM9.70248 7.5H11.4029L11.1529 6H9.55248L9.70248 7.5ZM7.30248 7.5H8.6975L8.5475 6H7.45248L7.30248 7.5Z" fill="black"/>
<path fill-rule="evenodd" clip-rule="evenodd" d="M8 14.2903C12.8 12.6903 16 14.2903 16 14.2903L13.867 1.48732C11.9576 0.885737 9.9094 0.885737 8 1.48732C6.09078 2.09007 4.04222 2.09007 2.133 1.48732L0 14.2903C0 14.2903 3.2 15.8903 8 14.2903ZM12.208 12.5783C10.6688 12.5874 9.14122 12.8447 7.684 13.3403C6.43122 13.7679 5.1167 13.9907 3.793 14.0003C2.8903 14.0064 1.99132 13.8842 1.123 13.6373L2.941 2.72232C3.71564 2.87893 4.5037 2.95965 5.294 2.96332C6.34548 2.97875 7.39022 2.79309 8.372 2.41632C9.11753 2.13574 9.90956 1.99932 10.706 2.01432C11.4738 2.01992 12.2385 2.11115 12.986 2.28632L14.746 12.8453C13.912 12.6656 13.0611 12.5761 12.208 12.5783Z" fill="black"/>
</svg>
