<svg width="16" height="16" viewBox="0 0 16 16" fill="none" xmlns="http://www.w3.org/2000/svg">
<g clip-path="url(#clip0_345_605)">
<path fill-rule="evenodd" clip-rule="evenodd" d="M10.5974 5.67208L8.36495 4.92794L6.74438 6.54852L4.715 7.05586L2.5 9.82461V12.809L5.14963 14.1338L6.82918 11.8944L10 10.309V8.06155L10.5974 5.67208ZM7.25562 7.45148L8.63505 6.07206L9.40263 6.32792L9 7.93845V9.69098L6.17082 11.1056L4.85037 12.8662L3.5 12.191V10.1754L5.285 7.94414L7.25562 7.45148Z" fill="black"/>
<path fill-rule="evenodd" clip-rule="evenodd" d="M0 16V0H16V16H0ZM9.27712 1H12.2427L14.3469 3.94595L12 6.29289V8.88197L10.6179 11.6462L7.76736 13.3565L9 15H1L1 9.09989L2.95457 7.77666L3.42091 5.44495L6.80081 4.9621L9.27712 1ZM15 3.13977L13.4716 1H15V3.13977ZM13 6.70711L15 4.70711V15H10.25L9.23264 13.6435L11.3821 12.3538L13 9.11803V6.70711ZM8.09788 1H1V7.9057L2.04543 7.22334L2.57909 4.55505L6.19919 4.0379L8.09788 1Z" fill="black"/>
</g>
<defs>
<clipPath id="clip0_345_605">
<rect width="16" height="16" fill="white"/>
</clipPath>
</defs>
</svg>
