<svg width="16" height="16" viewBox="0 0 16 16" fill="none" xmlns="http://www.w3.org/2000/svg">
<path fill-rule="evenodd" clip-rule="evenodd" d="M3.793 14.7997C2.49252 14.8348 1.19948 14.5924 0 14.0887L1.01 8.11967V9.98467C1.01259 10.3583 1.2253 10.6986 1.56 10.8647L1.125 13.4367C1.9927 13.6832 2.89098 13.8054 3.793 13.7997C5.12366 13.7884 6.44114 13.5349 7.681 13.0517C9.12569 12.4961 10.6592 12.2075 12.207 12.1997C13.0509 12.198 13.8902 12.3248 14.696 12.5757L14.412 10.9017C14.8051 10.7625 15.0764 10.401 15.1 9.98467V9.35567C15.0528 8.78522 14.5724 8.34847 14 8.35567H13.982L13.785 7.19267V5.99967C13.7835 5.72168 13.6652 5.45712 13.459 5.27067L12.976 2.41267C12.2456 2.15884 11.4792 2.02412 10.706 2.01367C9.89555 1.99404 9.08976 2.14179 8.339 2.44767C7.37081 2.83234 6.33561 3.02 5.294 2.99967C4.50075 2.99549 3.71012 2.90835 2.935 2.73967L2.553 4.99967H2.01C1.83361 5.00429 1.6618 5.05683 1.513 5.15167L2.133 1.48767C3.15388 1.82066 4.22021 1.99338 5.294 1.99967C7.982 1.99967 8.015 1.01367 10.706 1.01367C11.7939 1.02651 12.8684 1.25562 13.867 1.68767L16 14.2897C14.8757 13.5497 13.5526 13.1699 12.207 13.2007C8.542 13.2007 7.458 14.8007 3.793 14.8007V14.7997ZM2.01 9.98467H2.795V8.13467H2.806L4.213 9.98467H5V9.68467L3.563 7.87667L5 6.20067V6.02067C5 6.01367 5.004 6.00667 5.004 5.99967H4.208L2.795 7.71267V5.99967H2.01V9.98467ZM14 9.98467V9.35667H12.785V5.99967H12V9.98467H14ZM6 6.01967V9.99967H6.865V6.72967L6.878 6.71767L8.09 9.99967H8.955L10.143 6.71767H10.156V9.99967H11V6.02067H9.601L8.531 9.04067H8.517L7.446 6.02067L6 6.01967Z" fill="#151515"/>
</svg>
