<svg width="16" height="16" viewBox="0 0 16 16" fill="none" xmlns="http://www.w3.org/2000/svg">
<path fill-rule="evenodd" clip-rule="evenodd" d="M5.53061 6.93728V11.2928L10.9162 9.3883L10.3122 8.93833L10.9162 8.13297L13.2838 9.6117L4.53061 12.7072V6.88815C3.98455 6.66393 3.60001 6.12687 3.60001 5.5C3.60001 4.67157 4.27158 4 5.10001 4C5.92843 4 6.60001 4.67157 6.60001 5.5C6.60001 5.56945 6.59529 5.6378 6.58615 5.70474L7.41294 6.18704L6.68176 6.91822L6.12614 6.59411C5.95901 6.75091 5.75594 6.86987 5.53061 6.93728ZM5.60001 5.5C5.60001 5.77614 5.37615 6 5.10001 6C4.82386 6 4.60001 5.77614 4.60001 5.5C4.60001 5.22386 4.82386 5 5.10001 5C5.37615 5 5.60001 5.22386 5.60001 5.5Z" fill="black"/>
<path d="M8.30711 7.41421L7.60001 8.12132L8.30711 8.82843L9.01422 8.12132L9.72133 8.82843L10.4284 8.12132L9.72133 7.41421L10.4284 6.70711L9.72133 6L9.01422 6.70711L8.30711 6L7.60001 6.70711L8.30711 7.41421Z" fill="black"/>
<path fill-rule="evenodd" clip-rule="evenodd" d="M8 14.2903C12.8 12.6903 16 14.2903 16 14.2903L13.867 1.48732C11.9576 0.885737 9.9094 0.885737 8 1.48732C6.09078 2.09007 4.04222 2.09007 2.133 1.48732L0 14.2903C0 14.2903 3.2 15.8903 8 14.2903ZM12.208 12.5783C10.6688 12.5874 9.14122 12.8447 7.684 13.3403C6.43122 13.7679 5.1167 13.9907 3.793 14.0003C2.8903 14.0064 1.99132 13.8842 1.123 13.6373L2.941 2.72232C3.71564 2.87893 4.5037 2.95965 5.294 2.96332C6.34548 2.97875 7.39022 2.79309 8.372 2.41632C9.11753 2.13574 9.90956 1.99932 10.706 2.01432C11.4738 2.01992 12.2385 2.11115 12.986 2.28632L14.746 12.8453C13.912 12.6656 13.0611 12.5761 12.208 12.5783Z" fill="black"/>
</svg>
