<svg width="16" height="16" viewBox="0 0 16 16" fill="none" xmlns="http://www.w3.org/2000/svg">
<g clip-path="url(#clip0_9093_425)">
<path d="M4 9V7H6V8.035C6.21641 7.90262 6.45131 7.8032 6.697 7.74C6.77584 7.53777 6.8775 7.34519 7 7.166V7H7.118C7.26674 6.7993 7.43416 6.61313 7.618 6.444C7.82002 6.28032 8.03394 6.13191 8.258 6H7V4H9V5.61C9.32341 5.46512 9.65779 5.34608 10 5.254V0H0V10H4.539C4.57469 9.64049 4.70209 9.29616 4.909 9H4ZM6 6H4V4H6V6ZM3 6H1V4H3V6ZM9 1V3H7V1H9ZM6 1V3H4V1H6ZM3 1V3H1V1H3ZM1 9V7H3V9H1ZM11.864 9.093C11.7487 8.97962 11.6467 8.85348 11.56 8.717C11.5484 8.56052 11.5237 8.40531 11.486 8.253C11.7638 8.05155 12.0779 7.90556 12.411 7.823C12.9074 7.7187 13.4113 7.6545 13.918 7.631L15.006 7.589L14.045 6.555L13.897 6.52C13.2319 6.36979 12.5528 6.29035 11.871 6.283C10.641 6.26117 9.44098 6.66376 8.473 7.423C8.466 7.428 7.796 8.031 7.857 8.573C7.867 8.663 7.869 8.678 7.625 8.863C7.583 8.894 7.54 8.926 7.498 8.96C7.22535 8.94888 6.954 9.00317 6.70662 9.11834C6.45924 9.23351 6.24301 9.4062 6.076 9.622C5.886 9.804 5.526 10.326 6.282 11.249C7.042 12.169 7.624 11.916 7.838 11.764C8.08056 11.642 8.29071 11.4641 8.45116 11.2451C8.61162 11.0261 8.71781 10.7721 8.761 10.504C8.94967 10.333 9.18435 10.221 9.436 10.182C9.668 10.182 9.839 10.316 10.153 10.632C11.3737 12.12 12.4999 13.6831 13.525 15.312C13.6065 15.4382 13.7146 15.545 13.8417 15.625C13.9689 15.705 14.112 15.7562 14.261 15.775C14.3051 15.7803 14.3495 15.783 14.394 15.783C14.6517 15.7829 14.9001 15.6862 15.09 15.512L15.633 15.015C15.8305 14.8354 15.9506 14.5862 15.968 14.3198C15.9853 14.0534 15.8986 13.7907 15.726 13.587L11.864 9.093ZM8.847 8.56C8.91915 8.4179 9.01445 8.2888 9.129 8.178C9.68055 7.74569 10.3343 7.46291 11.027 7.357C10.9127 7.43198 10.8025 7.5131 10.697 7.6C10.5835 7.70135 10.5037 7.83498 10.4683 7.98298C10.4329 8.13098 10.4436 8.28627 10.499 8.428C10.5314 8.54641 10.5524 8.66762 10.562 8.79C10.5864 8.97273 10.6535 9.14713 10.758 9.299C10.6444 9.37552 10.5349 9.45797 10.43 9.546C10.1496 9.31541 9.79899 9.18736 9.436 9.183C9.01993 9.20865 8.6211 9.35843 8.291 9.613C8.47372 9.50797 8.62293 9.35331 8.72134 9.16694C8.81975 8.98057 8.86332 8.77012 8.847 8.56ZM7.785 10.26C7.752 10.558 7.735 10.61 7.343 10.89C7.12802 10.7293 6.9551 10.519 6.839 10.277C7.189 9.947 7.241 9.937 7.545 9.966C7.69349 9.97918 7.84219 9.94297 7.968 9.863C7.86546 9.97192 7.80122 10.1113 7.785 10.26ZM14.364 14.768C13.772 13.86 12.184 11.47 11.147 10.253C11.209 10.205 11.287 10.149 11.389 10.081L14.959 14.279L14.364 14.768Z" fill="black"/>
</g>
<defs>
<clipPath id="clip0_9093_425">
<rect width="16" height="16" fill="white"/>
</clipPath>
</defs>
</svg>
