<svg width="16" height="16" viewBox="0 0 16 16" fill="none" xmlns="http://www.w3.org/2000/svg">
<path d="M5 7C5.55228 7 6 6.55228 6 6C6 5.44772 5.55228 5 5 5C4.44772 5 4 5.44772 4 6C4 6.55228 4.44772 7 5 7Z" fill="black"/>
<path d="M13 9C13 9.55228 12.5523 10 12 10C11.4477 10 11 9.55228 11 9C11 8.44771 11.4477 8 12 8C12.5523 8 13 8.44771 13 9Z" fill="black"/>
<path d="M10 6C10.5523 6 11 5.55228 11 5C11 4.44772 10.5523 4 10 4C9.44771 4 9 4.44772 9 5C9 5.55228 9.44771 6 10 6Z" fill="black"/>
<path d="M7 11C7 11.5523 6.55228 12 6 12C5.44772 12 5 11.5523 5 11C5 10.4477 5.44772 10 6 10C6.55228 10 7 10.4477 7 11Z" fill="black"/>
<path d="M8 9C8.55228 9 9 8.55228 9 8C9 7.44772 8.55228 7 8 7C7.44772 7 7 7.44772 7 8C7 8.55228 7.44772 9 8 9Z" fill="black"/>
<path fill-rule="evenodd" clip-rule="evenodd" d="M8.00001 0L14.9282 4V12L8.00001 16L1.07181 12V4L8.00001 0ZM2.07181 4.57735L8.00001 1.1547L13.9282 4.57735V11.4227L8.00001 14.8453L2.07181 11.4227V4.57735Z" fill="black"/>
</svg>
