<svg width="16" height="16" viewBox="0 0 16 16" fill="none" xmlns="http://www.w3.org/2000/svg">
<path fill-rule="evenodd" clip-rule="evenodd" d="M14 3.91465C14.5826 3.70873 15 3.15311 15 2.5C15 1.67157 14.3284 1 13.5 1C12.6716 1 12 1.67157 12 2.5C12 3.15311 12.4174 3.70873 13 3.91465V4.5C13 5.88071 11.8807 7 10.5 7H4.94999C4.71836 5.85888 3.70948 5 2.5 5C1.11929 5 0 6.11929 0 7.5C0 8.88071 1.11929 10 2.5 10C3.70948 10 4.71836 9.14112 4.94999 8H7V11.5C7 13.433 8.567 15 10.5 15H12.0854C12.2913 15.5826 12.8469 16 13.5 16C14.3284 16 15 15.3284 15 14.5C15 13.6716 14.3284 13 13.5 13C12.8469 13 12.2913 13.4174 12.0854 14H10.5C9.11929 14 8 12.8807 8 11.5V8H10.5C12.433 8 14 6.433 14 4.5V3.91465ZM14 2.5C14 2.77614 13.7761 3 13.5 3C13.2239 3 13 2.77614 13 2.5C13 2.22386 13.2239 2 13.5 2C13.7761 2 14 2.22386 14 2.5ZM2.5 9C3.32843 9 4 8.32843 4 7.5C4 6.67157 3.32843 6 2.5 6C1.67157 6 1 6.67157 1 7.5C1 8.32843 1.67157 9 2.5 9ZM13.5 15C13.7761 15 14 14.7761 14 14.5C14 14.2239 13.7761 14 13.5 14C13.2239 14 13 14.2239 13 14.5C13 14.7761 13.2239 15 13.5 15Z" fill="black"/>
</svg>
