<svg width="16" height="16" viewBox="0 0 16 16" fill="none" xmlns="http://www.w3.org/2000/svg">
<g clip-path="url(#clip0_24_87)">
<path d="M4.5855 9.51965L1.2801 2.90886C5.13464 0.363714 10.1419 0.363714 13.9965 2.90886L10.6911 9.51965L11.5855 9.96686L15.2766 2.58472L14.9289 2.33639C10.5676 -0.778796 4.70892 -0.778796 0.347665 2.33639L0 2.58472L3.69107 9.96686L4.5855 9.51965Z" fill="black"/>
<path fill-rule="evenodd" clip-rule="evenodd" d="M3.63831 12.7433C3.63831 12.7433 4.78116 15.2433 7.63831 15.2433C10.4954 15.2433 11.6383 12.7433 11.6383 12.7433C11.6383 12.7433 10.4954 10.2433 7.63831 10.2433C4.78116 10.2433 3.63831 12.7433 3.63831 12.7433ZM6.13831 11.7433C6.13831 11.6881 6.14129 11.6335 6.1471 11.5799C5.79124 11.7554 5.49981 11.9809 5.26396 12.2103C5.07257 12.3963 4.92033 12.5831 4.80531 12.7433C4.92033 12.9034 5.07257 13.0902 5.26396 13.2763C5.77019 13.7684 6.53239 14.2433 7.63831 14.2433C8.74422 14.2433 9.50642 13.7684 10.0127 13.2763C10.204 13.0902 10.3563 12.9034 10.4713 12.7433C10.3563 12.5831 10.204 12.3963 10.0127 12.2103C9.7768 11.9809 9.48537 11.7554 9.12951 11.5799C9.13532 11.6335 9.13831 11.6881 9.13831 11.7433C9.13831 12.5717 8.46673 13.2433 7.63831 13.2433C6.80988 13.2433 6.13831 12.5717 6.13831 11.7433Z" fill="black"/>
</g>
<defs>
<clipPath id="clip0_24_87">
<rect width="16" height="16" fill="white"/>
</clipPath>
</defs>
</svg>
