<svg width="16" height="16" viewBox="0 0 16 16" fill="none" xmlns="http://www.w3.org/2000/svg">
<g clip-path="url(#clip0_24_51)">
<path d="M8 16C9.22535 16 10.3864 15.7245 11.4245 15.2321C11.2198 14.9707 11.0787 14.6571 11.0246 14.3146C10.1091 14.7539 9.08329 15 8 15C4.13401 15 1 11.866 1 8C1 7.26227 1.11412 6.5512 1.32568 5.88347C0.990264 5.76337 0.69628 5.55622 0.470944 5.28925C0.166121 6.13575 0 7.04848 0 8C0 12.4183 3.58172 16 8 16Z" fill="black"/>
<path d="M16 8C16 9.74374 15.4421 11.3572 14.4951 12.6715C14.2723 12.421 13.9875 12.2268 13.6647 12.1131C14.5046 10.9584 15 9.53707 15 8C15 4.13401 11.866 1 8 1C6.27708 1 4.69954 1.62246 3.47999 2.65476C3.24562 2.39706 2.94486 2.20082 2.60474 2.09306C4.02728 0.793016 5.92103 0 8 0C12.4183 0 16 3.58172 16 8Z" fill="black"/>
<path d="M2 5C2.55228 5 3 4.55228 3 4C3 3.44772 2.55228 3 2 3C1.44772 3 1 3.44772 1 4C1 4.55228 1.44772 5 2 5Z" fill="black"/>
<path d="M11 6C11.5523 6 12 5.55228 12 5C12 4.44772 11.5523 4 11 4C10.4477 4 10 4.44772 10 5C10 5.55228 10.4477 6 11 6Z" fill="black"/>
<path fill-rule="evenodd" clip-rule="evenodd" d="M8 10C9.10457 10 10 9.10457 10 8C10 6.89543 9.10457 6 8 6C6.89543 6 6 6.89543 6 8C6 9.10457 6.89543 10 8 10ZM9 8C9 8.55228 8.55228 9 8 9C7.44772 9 7 8.55228 7 8C7 7.44772 7.44772 7 8 7C8.55228 7 9 7.44772 9 8Z" fill="black"/>
<path d="M14 14C14 14.5523 13.5523 15 13 15C12.4477 15 12 14.5523 12 14C12 13.4477 12.4477 13 13 13C13.5523 13 14 13.4477 14 14Z" fill="black"/>
<path d="M8 13C10.7614 13 13 10.7614 13 8C13 7.34297 12.8733 6.71555 12.6429 6.14083C12.4376 6.43595 12.1548 6.67313 11.824 6.82291C11.9384 7.19505 12 7.59033 12 8C12 10.2091 10.2091 12 8 12C5.79086 12 4 10.2091 4 8C4 5.79086 5.79086 4 8 4C8.40967 4 8.80495 4.06158 9.17709 4.176C9.32687 3.84519 9.56404 3.56239 9.85917 3.35707C9.28445 3.12673 8.65702 3 8 3C5.23858 3 3 5.23858 3 8C3 10.7614 5.23858 13 8 13Z" fill="black"/>
</g>
<defs>
<clipPath id="clip0_24_51">
<rect width="16" height="16" fill="white"/>
</clipPath>
</defs>
</svg>
