<svg width="16" height="16" viewBox="0 0 16 16" fill="none" xmlns="http://www.w3.org/2000/svg">
<g clip-path="url(#clip0_24_37)">
<path d="M13.9184 2.10143C12.9802 0.841829 11.1762 0.62938 9.97103 1.63655C8.9003 2.53134 7.45489 2.83551 6.11435 2.44814L4.84351 2.08091C3.60913 1.72422 2.42848 2.78556 2.65216 4.05083C2.91452 5.53494 2.7799 7.06203 2.26193 8.47735L2.18096 8.69862C2.06125 9.02571 2 9.37131 2 9.71961V11H1V9.71961C1 9.25406 1.08187 8.79214 1.24187 8.35494L1.32285 8.13367C1.78022 6.8839 1.8991 5.53543 1.66743 4.22491C1.31491 2.23078 3.17566 0.558053 5.12112 1.12022L6.39195 1.48744C7.41311 1.78252 8.51415 1.55082 9.32978 0.869213C10.9756 -0.50619 13.4391 -0.216065 14.7204 1.50407L14.9767 1.84822C15.9617 3.17058 16.0926 4.94344 15.3125 6.39612C14.847 7.26302 14.7442 8.27914 15.0266 9.22171L15.1662 9.6875C16.0906 12.7722 13.2575 15.6679 10.1533 14.8112L7.93596 14.1992C7.41682 14.0559 6.88073 13.9833 6.34218 13.9833H5.14762V12.9833H6.34218C6.97064 12.9833 7.59622 13.068 8.20202 13.2352L10.4194 13.8472C12.7656 14.4948 14.907 12.3061 14.2083 9.97456L14.0687 9.50877C13.7103 8.31262 13.8407 7.02314 14.4315 5.92302C15.028 4.81226 14.9279 3.45669 14.1747 2.44558L13.9184 2.10143Z" fill="black"/>
<path fill-rule="evenodd" clip-rule="evenodd" d="M0 12V16H4V12H0ZM1 13V15H3V13H1Z" fill="black"/>
<path d="M11.791 6.02735C11.2201 6.88372 10.2284 7.71883 8.58217 7.9932C7.90334 8.10634 7.35639 8.37545 6.92192 8.718C7.04144 8.84839 7.15726 9.00099 7.26363 9.14112L7.29272 9.17943C7.4357 9.36748 7.58035 9.55493 7.74933 9.73377C8.08 10.0837 8.49282 10.3886 9.09803 10.5097C10.448 10.7797 11.1946 11.3372 11.5943 11.8969C11.7905 12.1714 11.8921 12.4317 11.9445 12.6305C11.9706 12.7298 11.9844 12.8137 11.9917 12.8768C11.9954 12.9084 11.9975 12.9349 11.9986 12.9556C11.9992 12.9659 11.9995 12.9749 11.9997 12.9823L11.9999 12.9923L12 12.9964L12 12.9983C12 12.9987 12 13 11.5 13C11 13 11 13.0004 11 13.0008L11 13.003L11 13.0055L11.0001 13.009L11.0001 13.0104C11 13.0089 10.9997 13.0027 10.9984 12.9923C10.996 12.9714 10.9903 12.9343 10.9774 12.885C10.9516 12.787 10.897 12.641 10.7806 12.4781C10.5553 12.1627 10.0519 11.7203 8.90192 11.4903C8.03627 11.3171 7.44908 10.872 7.02247 10.4206C6.81281 10.1987 6.6395 9.97252 6.49667 9.78466L6.48944 9.77515C6.38161 9.63331 6.29846 9.52395 6.22497 9.43876C5.78689 10.0278 5.56323 10.6618 5.49317 11.0822L4.50677 10.9178C4.66569 9.96433 5.44794 8.09422 7.37504 7.30124C7.16894 6.80607 6.96255 6.34321 6.59067 5.98512C6.16975 5.57981 5.46841 5.26216 4.08219 5.49321L3.91779 4.50681C5.53157 4.23783 6.58022 4.58681 7.2843 5.26479C7.83288 5.79303 8.12846 6.49614 8.3425 7.01992C8.36744 7.01538 8.39254 7.01101 8.41777 7.0068C9.77156 6.78117 10.5299 6.11628 10.9589 5.47265C11.4032 4.80625 11.5 4.15307 11.5 4H12.5C12.5 4.34693 12.3467 5.19375 11.791 6.02735Z" fill="black"/>
</g>
<defs>
<clipPath id="clip0_24_37">
<rect width="16" height="16" fill="white"/>
</clipPath>
</defs>
</svg>
