<svg width="16" height="16" viewBox="0 0 16 16" fill="none" xmlns="http://www.w3.org/2000/svg">
<path d="M8 5.20001C8 6.30458 7.10457 7.20001 6 7.20001C4.89543 7.20001 4 6.30458 4 5.20001C4 4.09544 4.89543 3.20001 6 3.20001C7.10457 3.20001 8 4.09544 8 5.20001Z" fill="black"/>
<path d="M10.4 12.8C11.2837 12.8 12 12.0837 12 11.2C12 10.3164 11.2837 9.60001 10.4 9.60001C9.51635 9.60001 8.8 10.3164 8.8 11.2C8.8 12.0837 9.51635 12.8 10.4 12.8Z" fill="black"/>
<path d="M12 5.99999C12 6.66273 11.4627 7.19999 10.8 7.19999C10.1373 7.19999 9.6 6.66273 9.6 5.99999C9.6 5.33725 10.1373 4.79999 10.8 4.79999C11.4627 4.79999 12 5.33725 12 5.99999Z" fill="black"/>
<path d="M4.8 11.2C5.24183 11.2 5.6 10.8418 5.6 10.4C5.6 9.95818 5.24183 9.60001 4.8 9.60001C4.35817 9.60001 4 9.95818 4 10.4C4 10.8418 4.35817 11.2 4.8 11.2Z" fill="black"/>
<path fill-rule="evenodd" clip-rule="evenodd" d="M8 16C12.4183 16 16 12.4183 16 8C16 3.58172 12.4183 0 8 0C3.58172 0 0 3.58172 0 8C0 12.4183 3.58172 16 8 16ZM8 15C11.866 15 15 11.866 15 8C15 4.13401 11.866 1 8 1C4.13401 1 1 4.13401 1 8C1 11.866 4.13401 15 8 15Z" fill="black"/>
</svg>
