<svg width="16" height="16" viewBox="0 0 16 16" fill="none" xmlns="http://www.w3.org/2000/svg">
<path fill-rule="evenodd" clip-rule="evenodd" d="M6 1H1V12H2V13H1V15H6V10H7V16H0V0H7V4H6V1ZM15 1H10V4H9V0H16V16H9V10H10V15H15V1ZM9.29286 6.5L8.14645 5.35359L8.85356 4.64648L11.2071 7.00004L8.85356 9.35359L8.14645 8.64648L9.29294 7.5H6V6.5H9.29286ZM3 2H2V3H3V4H2V5H3V4H4V3H5V2H4V3H3V2ZM11 2H14V4H13V5H11V2ZM14 12V9H11V11H12V12H14ZM4 6H3V7H4V6ZM4 9H5V10H4V9ZM3 10H4V11H3V10ZM3 10H2V9H3V10ZM4 11H5V12H4V11ZM6 5H5V6H6V5Z" fill="black"/>
</svg>
