<svg xmlns="http://www.w3.org/2000/svg" width="16" height="16" viewBox="0 0 16 16" fill="none">
  <g clip-path="url(#clip0_1003_5108)">
    <path fill-rule="evenodd" clip-rule="evenodd" d="M6.14671 2.85381C5.95089 2.94752 5.73157 3 5.5 3C5.30666 3 5.12186 2.96342 4.95215 2.89681L2.80493 5.75977C2.92909 5.97818 3 6.23081 3 6.5C3 7.32843 2.32843 8 1.5 8C0.671573 8 0 7.32843 0 6.5C0 5.67157 0.671573 5 1.5 5C1.6932 5 1.87786 5.03652 2.04747 5.10305L4.19486 2.23986C4.07083 2.02154 4 1.76904 4 1.5C4 0.671573 4.67157 0 5.5 0C6.32843 0 7 0.671573 7 1.5C7 1.73157 6.94752 1.95089 6.85381 2.14671L8.85329 4.14619C9.04911 4.05248 9.26843 4 9.5 4C9.88947 4 10.2443 4.14843 10.5109 4.39181L13.0163 2.72159C13.0055 2.64928 13 2.57529 13 2.5C13 1.67157 13.6716 1 14.5 1C15.3284 1 16 1.67157 16 2.5C16 3.32843 15.3284 4 14.5 4C14.1105 4 13.7557 3.85157 13.4891 3.6082L10.9838 5.27844C10.9945 5.35074 11 5.42472 11 5.5C11 6.32843 10.3284 7 9.5 7C8.67157 7 8 6.32843 8 5.5C8 5.26843 8.05248 5.04911 8.14619 4.85329L6.14671 2.85381ZM6 1.5C6 1.77614 5.77614 2 5.5 2C5.22386 2 5 1.77614 5 1.5C5 1.22386 5.22386 1 5.5 1C5.77614 1 6 1.22386 6 1.5ZM2 6.5C2 6.77614 1.77614 7 1.5 7C1.22386 7 1 6.77614 1 6.5C1 6.22386 1.22386 6 1.5 6C1.77614 6 2 6.22386 2 6.5ZM9.5 6C9.77614 6 10 5.77614 10 5.5C10 5.22386 9.77614 5 9.5 5C9.22386 5 9 5.22386 9 5.5C9 5.77614 9.22386 6 9.5 6ZM15 2.5C15 2.77614 14.7761 3 14.5 3C14.2239 3 14 2.77614 14 2.5C14 2.22386 14.2239 2 14.5 2C14.7761 2 15 2.22386 15 2.5Z" fill="white"/>
    <path fill-rule="evenodd" clip-rule="evenodd" d="M3.58244 8.5H12.417L15.7963 15.5H0.203125L3.58244 8.5ZM4.21011 9.5L3.24459 11.5H5.35938L5.85938 9.5H4.21011ZM6.89015 9.5L6.39015 11.5H9.60929L9.10929 9.5H6.89015ZM6.14015 12.5H9.85929L10.3593 14.5H5.64015L6.14015 12.5ZM10.8901 12.5L11.3901 14.5H14.2031L13.2376 12.5H10.8901ZM10.1401 9.5L10.6401 11.5H12.7548L11.7893 9.5H10.1401ZM5.10938 12.5H2.76183L1.79631 14.5H4.60938L5.10938 12.5Z" fill="white"/>
  </g>
  <defs>
    <clipPath id="clip0_1003_5108">
      <rect width="16" height="16" fill="white"/>
    </clipPath>
  </defs>
</svg>