<svg width="16" height="16" viewBox="0 0 16 16" fill="none" xmlns="http://www.w3.org/2000/svg">
<path fill-rule="evenodd" clip-rule="evenodd" d="M0 3.5L6 0L12 3.5L6 7L0 3.5ZM1.98463 3.5L6 1.1577L10.0154 3.5L6 5.8423L1.98463 3.5Z" fill="black"/>
<path fill-rule="evenodd" clip-rule="evenodd" d="M8 8.5L12 6L16 8.5L12 11L8 8.5ZM9.8868 8.5L12 7.17925L14.1132 8.5L12 9.82075L9.8868 8.5Z" fill="black"/>
<path d="M3 6.5L4 7V9H7V10H4V13.5H7V14.5H3V6.5Z" fill="black"/>
<path d="M8 13L10.4 11.5L11.3434 12.0896L9.8868 13L12 14.3208L14.1132 13L12.6566 12.0896L13.6 11.5L16 13L12 15.5L8 13Z" fill="black"/>
</svg>
