<svg width="14" height="15" viewBox="0 0 14 15" fill="none" xmlns="http://www.w3.org/2000/svg">
    <path fill-rule="evenodd" clip-rule="evenodd"
        d="M4.99999 0L1.5 0.500002L2.76132 1.76133L0.867162 3.65549L0.858526 3.66507C0.839027 3.68669 0.813396 3.71336 0.78326 3.74471C0.621192 3.91332 0.328815 4.21751 0.15903 4.60174C-0.0668981 5.11302 -0.084427 5.74075 0.319638 6.47293C0.727335 7.21169 1.40346 7.56066 2.13656 7.53605C2.84014 7.51243 3.54616 7.15013 4.11126 6.58502L8.24805 2.22164C8.38248 2.08984 8.61499 1.99917 8.88892 2.00001C9.16565 2.00086 9.40342 2.09501 9.53934 2.22907C9.73893 2.42593 9.9167 2.7065 9.959 3.00489C9.99712 3.27381 9.93594 3.62169 9.5369 4.02073C8.72736 4.83028 5.53118 8.32474 3.86766 10.1546C3.60362 10.4197 3.21469 10.8606 3.00317 11.3946C2.77803 11.963 2.74891 12.6661 3.28467 13.3172C3.71541 13.8407 4.26748 14.1559 4.89117 14.1563C5.50462 14.1566 6.08439 13.852 6.58334 13.3531C6.9971 12.9393 7.92479 11.8989 8.75493 10.9588C9.07415 10.5973 9.38182 10.2473 9.64427 9.94878L9.87394 9.68758C10.0256 9.5152 10.1529 9.37063 10.2473 9.26431C10.2945 9.21108 10.3327 9.16821 10.3613 9.13658C10.3875 9.10749 10.4 9.0941 10.4033 9.09062C10.404 9.08983 10.4043 9.08955 10.4041 9.08971C10.5465 8.94726 10.8185 8.72419 11.1353 8.61597C11.4266 8.51644 11.7445 8.51293 12.0859 8.77471C12.1804 8.8472 12.3921 9.08396 12.4641 9.39341C12.5256 9.65749 12.5028 10.0398 12.0366 10.506C11.8324 10.7102 11.5773 10.9752 11.3349 11.2272L11.3041 11.2593C11.0707 11.5021 10.8525 11.729 10.697 11.8845L11.4041 12.5916C11.5668 12.4289 11.7911 12.1957 12.0204 11.9572L12.0558 11.9204C12.2999 11.6665 12.5478 11.409 12.7437 11.2131C13.4379 10.5189 13.5829 9.78909 13.4381 9.1668C13.3039 8.58987 12.9354 8.16603 12.6944 7.98121C12.0383 7.47796 11.3562 7.48374 10.812 7.66967C10.2932 7.84691 9.89415 8.18544 9.697 8.3826C9.63622 8.44338 9.29397 8.83265 8.83975 9.34929C8.58661 9.63721 8.2987 9.96469 8.00534 10.2969C7.16512 11.2485 6.26249 12.2597 5.87624 12.646C5.4986 13.0236 5.15871 13.1564 4.89172 13.1562C4.63497 13.1561 4.34582 13.033 4.05687 12.6818C3.80661 12.3777 3.807 12.0807 3.93289 11.7629C4.07008 11.4165 4.34748 11.0889 4.58335 10.8531L4.59176 10.8446L4.59977 10.8358C6.2718 8.9966 9.45483 5.51702 10.244 4.72784C10.845 4.12688 11.0352 3.47219 10.9491 2.86453C10.8671 2.28633 10.5449 1.8163 10.2416 1.51711C9.87749 1.158 9.36526 1.00146 8.89199 1.00001C8.4186 0.998563 7.90285 1.15208 7.53665 1.51855L3.3995 5.88231C2.96582 6.31414 2.48997 6.52361 2.10301 6.53661C1.74421 6.54865 1.42025 6.39762 1.19516 5.98975C0.932655 5.51408 0.981631 5.21429 1.07371 5.00592C1.16517 4.79894 1.30525 4.65054 1.46516 4.48114C1.50636 4.43749 1.54891 4.39241 1.59225 4.34462L3.46842 2.46844L4.49999 3.50001L4.99999 0Z"
        fill="white" />
</svg>