<svg width="16" height="16" viewBox="0 0 16 16" fill="none" xmlns="http://www.w3.org/2000/svg">
<path fill-rule="evenodd" clip-rule="evenodd" d="M0 14.09L1.2 7H2.214L1.124 13.437C1.99202 13.6836 2.89064 13.8058 3.793 13.8C5.12366 13.7887 6.44114 13.5353 7.681 13.052C9.12569 12.4965 10.6592 12.2078 12.207 12.2C13.0509 12.1983 13.8902 12.3251 14.696 12.576L12.976 2.413C12.2456 2.15917 11.4792 2.02445 10.706 2.014C9.89555 1.99437 9.08976 2.14212 8.339 2.448C8.229 2.488 8.116 2.528 8 2.568V1.506C8.85947 1.16067 9.77997 0.992964 10.706 1.013C11.7939 1.02584 12.8684 1.25495 13.867 1.687L16 14.29C14.8757 13.5501 13.5526 13.1702 12.207 13.201C8.542 13.201 7.458 14.801 3.793 14.801C2.49245 14.8358 1.19941 14.5931 0 14.089V14.09ZM4 11V7H8V4H12V11H4ZM8 8.5C8.03207 8.77844 7.94008 9.0569 7.74845 9.26143C7.55682 9.46597 7.28494 9.57589 7.005 9.562H7.003L7 10H8V8.5ZM11 10V9.513C10.5534 9.80822 10.0349 9.97655 9.5 10H11ZM9 7H11V5H9V7ZM9 8V9H9.5C10.0632 8.92275 10.5879 8.67055 11 8.279V8H9ZM5 10H6V9.5C6 8.926 6.312 8.611 6.93 8.564L6.998 8.559L7 8.5C7.00225 8.32659 7.04289 8.15583 7.119 8H5V10ZM2 6V1H7V6H2ZM3.564 3.81C3.63938 3.5223 3.79226 3.2608 4.006 3.054C4.21423 2.88818 4.48501 2.82268 4.746 2.875C4.82341 2.55416 4.97248 2.25501 5.182 2H3V4.34C3.1187 4.34629 3.23634 4.31478 3.336 4.25C3.44815 4.12508 3.52661 3.97365 3.564 3.81ZM6 2.56C5.84717 2.73202 5.74444 2.94266 5.703 3.169C5.66907 3.37501 5.57151 3.56524 5.424 3.713C5.21092 3.88167 4.93132 3.94121 4.668 3.874L4.618 3.865C4.57489 3.9543 4.53813 4.04653 4.508 4.141C4.41816 4.46929 4.23963 4.76649 3.992 5H6V2.56Z" fill="#151515"/>
</svg>
