<svg width="16" height="16" viewBox="0 0 16 16" fill="none" xmlns="http://www.w3.org/2000/svg">
<path fill-rule="evenodd" clip-rule="evenodd" d="M5 1H2V2H5V1ZM0.000158077 14.0894L0 14.0903V14.0893L0.000158077 14.0894ZM0.000158077 14.0894L1.2 7.00032H2.214L1.124 13.4373C1.99202 13.6839 2.89064 13.8062 3.793 13.8003C5.12366 13.789 6.44114 13.5356 7.681 13.0523C9.12568 12.4968 10.6592 12.2081 12.207 12.2003C13.0509 12.1987 13.8902 12.3254 14.696 12.5763L12.976 2.41332C12.2456 2.1595 11.4792 2.02478 10.706 2.01432C9.89555 1.9947 9.08976 2.14244 8.339 2.44832C8.229 2.48832 8.116 2.52832 8 2.56832V1.50632C8.85947 1.16099 9.77997 0.993288 10.706 1.01332C11.7939 1.02616 12.8685 1.25527 13.867 1.68732L16 14.2903C14.8757 13.5504 13.5526 13.1705 12.207 13.2013C10.3745 13.2013 9.18725 13.6013 8 14.0013C6.81275 14.4013 5.6255 14.8013 3.793 14.8013C2.4925 14.8361 1.19952 14.5934 0.000158077 14.0894ZM2 3H7V4H2V3ZM8 6V5H2V6H8Z" fill="black"/>
</svg>
