<svg width="16" height="16" viewBox="0 0 16 16" fill="none" xmlns="http://www.w3.org/2000/svg">
<path fill-rule="evenodd" clip-rule="evenodd" d="M6 3C6 4.10457 5.10457 5 4 5C2.89543 5 2 4.10457 2 3C2 1.89543 2.89543 1 4 1C5.10457 1 6 1.89543 6 3ZM7 3C7 4.65685 5.65685 6 4 6C2.34315 6 1 4.65685 1 3C1 1.34315 2.34315 0 4 0C5.65685 0 7 1.34315 7 3ZM0.000158077 14.0894L0 14.0903V14.0893L0.000158077 14.0894ZM0.000158077 14.0894L1.2 7.00032H2.214L1.124 13.4373C1.99202 13.6839 2.89064 13.8062 3.793 13.8003C5.12366 13.789 6.44114 13.5356 7.681 13.0523C9.12568 12.4968 10.6592 12.2081 12.207 12.2003C13.0509 12.1987 13.8902 12.3254 14.696 12.5763L12.976 2.41332C12.2456 2.1595 11.4792 2.02478 10.706 2.01432C9.89555 1.9947 9.08976 2.14244 8.339 2.44832C8.229 2.48832 8.116 2.52832 8 2.56832V1.50632C8.85947 1.16099 9.77997 0.993288 10.706 1.01332C11.7939 1.02616 12.8685 1.25527 13.867 1.68732L16 14.2903C14.8757 13.5504 13.5526 13.1705 12.207 13.2013C10.3745 13.2013 9.18725 13.6013 8 14.0013C6.81275 14.4013 5.6255 14.8013 3.793 14.8013C2.4925 14.8361 1.19952 14.5934 0.000158077 14.0894ZM10 9C10.5523 9 11 8.55228 11 8C11 7.44772 10.5523 7 10 7C9.44772 7 9 7.44772 9 8C9 8.55228 9.44772 9 10 9ZM10 10C11.1046 10 12 9.10457 12 8C12 6.89543 11.1046 6 10 6C8.89543 6 8 6.89543 8 8C8 9.10457 8.89543 10 10 10ZM6.77736 10.916L8.27736 9.91603L7.72266 9.08398L6.22266 10.084L6.77736 10.916ZM7.22055 5.11802L8.31296 6.01615L7.67789 6.7886L6.58548 5.89047L7.22055 5.11802ZM5 11.5C5 11.7761 4.77614 12 4.5 12C4.22386 12 4 11.7761 4 11.5C4 11.2239 4.22386 11 4.5 11C4.77614 11 5 11.2239 5 11.5ZM6 11.5C6 12.3284 5.32843 13 4.5 13C3.67157 13 3 12.3284 3 11.5C3 10.6716 3.67157 10 4.5 10C5.32843 10 6 10.6716 6 11.5Z" fill="black"/>
</svg>
