<svg width="16" height="16" viewBox="0 0 16 16" fill="none" xmlns="http://www.w3.org/2000/svg">
<path fill-rule="evenodd" clip-rule="evenodd" d="M6 2H3V5H6V2ZM2 1V6H7V1H2ZM0 14.0903L0.000158077 14.0894C1.19952 14.5934 2.4925 14.8361 3.793 14.8013C5.6255 14.8013 6.81275 14.4013 8 14.0013C9.18725 13.6013 10.3745 13.2013 12.207 13.2013C13.5526 13.1705 14.8757 13.5504 16 14.2903L13.867 1.68732C12.8685 1.25527 11.7939 1.02616 10.706 1.01332C9.77997 0.993288 8.85947 1.16099 8 1.50632V2.56832C8.116 2.52832 8.229 2.48832 8.339 2.44832C9.08976 2.14244 9.89555 1.9947 10.706 2.01432C11.4792 2.02478 12.2456 2.1595 12.976 2.41332L14.696 12.5763C13.8902 12.3254 13.0509 12.1987 12.207 12.2003C10.6592 12.2081 9.12568 12.4968 7.681 13.0523C6.44114 13.5356 5.12366 13.789 3.793 13.8003C2.89064 13.8062 1.99202 13.6839 1.124 13.4373L2.214 7.00032H1.2L0.000158077 14.0894L0 14.0893V14.0903ZM11 5H9V7H11V5ZM8 4V7H5V11H8H9H12V8V7V4H8ZM6 10V8H8V10H6ZM9 8H11V10H9V8Z" fill="black"/>
</svg>
