<svg width="10" height="10" viewBox="0 0 10 10" fill="none" xmlns="http://www.w3.org/2000/svg">
<g id="tag-close-10">
<g id="close-small">
<path id="close" d="M5.74548 5L8.84561 8.10013C9.05146 8.30599 9.05146 8.63975 8.84561 8.84561C8.63975 9.05146 8.30599 9.05146 8.10013 8.84561L5 5.74548L1.89987 8.84561C1.69401 9.05146 1.36025 9.05146 1.15439 8.84561C0.948535 8.63975 0.948535 8.30599 1.15439 8.10013L4.25452 5L1.15439 1.89987C0.948535 1.69401 0.948535 1.36025 1.15439 1.15439C1.36025 0.948535 1.69401 0.948535 1.89987 1.15439L5 4.25452L8.10013 1.15439C8.30599 0.948535 8.63975 0.948535 8.84561 1.15439C9.05146 1.36025 9.05146 1.69401 8.84561 1.89987L5.74548 5Z" fill="black"/>
</g>
</g>
</svg>
