<svg width="32" height="32" viewBox="0 0 32 32" fill="none" xmlns="http://www.w3.org/2000/svg">
<path d="M2.1505 24L19.3005 13.9742H28.1963C28.4705 13.9742 28.7155 14.1806 28.7155 14.4626C28.7155 14.693 28.6082 14.7973 28.4705 14.8741L20.0448 19.6181C19.4965 19.9287 19.3063 20.5454 19.3063 21.0063L19.297 23.9967H30V6.61735C30.0004 6.5341 29.9828 6.45164 29.9483 6.37498C29.9138 6.29831 29.8631 6.22904 29.7993 6.17137C29.7355 6.1137 29.6598 6.06882 29.577 6.03947C29.4942 6.01011 29.4059 5.9969 29.3175 6.00061H19.1068L2 15.9792V23.9978H2.1505V24Z" fill="black"/>
</svg>
