<svg width="16" height="16" viewBox="0 0 16 16" fill="none" xmlns="http://www.w3.org/2000/svg">
<path fill-rule="evenodd" clip-rule="evenodd" d="M10.5 1C10.7761 1 11 1.22386 11 1.5V2H14C14.5523 2 15 2.44772 15 3V8.67188C15.6252 9.44469 16 10.4285 16 11.5C16 13.9853 13.9853 16 11.5 16C10.4288 16 9.44558 15.625 8.67285 15H2C1.44772 15 1 14.5523 1 14V3C1 2.44772 1.44772 2 2 2H5V1.5C5 1.22386 5.22386 1 5.5 1C5.77614 1 6 1.22386 6 1.5V2H10V1.5C10 1.22386 10.2239 1 10.5 1ZM11.5 8C9.567 8 8 9.567 8 11.5C8 13.433 9.567 15 11.5 15C13.433 15 15 13.433 15 11.5C15 9.567 13.433 8 11.5 8ZM2 14H7.75879C7.27996 13.2849 7 12.4253 7 11.5C7 9.01472 9.01472 7 11.5 7C12.4286 7 13.2912 7.28171 14.0078 7.76367C14.0051 7.76186 14.0027 7.75962 14 7.75781V6H2V14ZM2 5H14V3H11V3.5C11 3.77614 10.7761 4 10.5 4C10.2239 4 10 3.77614 10 3.5V3H6V3.5C6 3.77614 5.77614 4 5.5 4C5.22386 4 5 3.77614 5 3.5V3H2V5Z" fill="black"/>
<path d="M11.5 9C11.7761 9 12 9.22386 12 9.5V11H13.5C13.7761 11 14 11.2239 14 11.5C14 11.7761 13.7761 12 13.5 12H11V9.5C11 9.22386 11.2239 9 11.5 9Z" fill="black"/>
</svg>
