<svg width="16" height="16" viewBox="0 0 16 16" fill="none" xmlns="http://www.w3.org/2000/svg">
<path fill-rule="evenodd" clip-rule="evenodd" d="M2.61583 1.67969C-0.435093 5.34079 -0.435093 10.6588 2.61583 14.3199L3.38405 13.6797C0.642166 10.3894 0.642166 5.61013 3.38405 2.31987L2.61583 1.67969ZM13.3842 14.3203C16.4351 10.6592 16.4351 5.34123 13.3842 1.68013L12.616 2.32031C15.3578 5.61057 15.3578 10.3899 12.616 13.6801L13.3842 14.3203ZM8.91504 8H9.91504V6.3661L11.3301 7.18311L11.8301 6.31708L10.4146 5.49985L11.8301 4.68262L11.3301 3.81659L9.91504 4.63359V3H8.91504V4.63405L7.5 3.81708L7 4.68311L8.41464 5.49985L7 6.31659L7.5 7.18262L8.91504 6.36564V8ZM5 13C5.55228 13 6 12.5523 6 12C6 11.4477 5.55228 11 5 11C4.44772 11 4 11.4477 4 12C4 12.5523 4.44772 13 5 13Z" fill="black"/>
</svg>
