<svg width="16" height="16" viewBox="0 0 16 16" fill="none" xmlns="http://www.w3.org/2000/svg">
<path d="M4.51172 12.4961H3V4H4.51172V12.4961Z" fill="black"/>
<path fill-rule="evenodd" clip-rule="evenodd" d="M8.80762 4C9.35948 4 9.91573 4.07189 10.4756 4.21582C11.0356 4.35982 11.5403 4.59956 11.9883 4.93555C12.4363 5.26355 12.8001 5.70014 13.0801 6.24414C13.36 6.78012 13.5 7.44812 13.5 8.24805C13.5 8.992 13.3601 9.63199 13.0801 10.168C12.8001 10.704 12.4363 11.1443 11.9883 11.4883C11.5403 11.8323 11.0356 12.0879 10.4756 12.2559C9.9157 12.4158 9.3595 12.4961 8.80762 12.4961H5.7959V4H8.80762ZM7.30762 11.1758H8.56836C8.96024 11.1758 9.35226 11.1319 9.74414 11.0439C10.136 10.948 10.4879 10.7921 10.7998 10.5762C11.1198 10.3522 11.3801 10.0518 11.5801 9.67578C11.78 9.29982 11.8799 8.82392 11.8799 8.24805C11.8799 7.64005 11.7801 7.14377 11.5801 6.75977C11.3801 6.37585 11.1197 6.07632 10.7998 5.86035C10.4878 5.64438 10.1361 5.49602 9.74414 5.41602C9.35226 5.33604 8.96024 5.29592 8.56836 5.2959H7.30762V11.1758Z" fill="black"/>
<path fill-rule="evenodd" clip-rule="evenodd" d="M14 0.5C14.8284 0.5 15.5 1.17157 15.5 2V14C15.5 14.8284 14.8284 15.5 14 15.5H2C1.17157 15.5 0.5 14.8284 0.5 14V2C0.5 1.17157 1.17157 0.5 2 0.5H14ZM2 1.5C1.72386 1.5 1.5 1.72386 1.5 2V14C1.5 14.2761 1.72386 14.5 2 14.5H14C14.2761 14.5 14.5 14.2761 14.5 14V2C14.5 1.72386 14.2761 1.5 14 1.5H2Z" fill="black"/>
</svg>