<svg width="16" height="16" viewBox="0 0 16 16" fill="none" xmlns="http://www.w3.org/2000/svg">
<path fill-rule="evenodd" clip-rule="evenodd" d="M0 6.5V0H9V6.5H0ZM2.5 1H1V2.5H2.5V1ZM3.5 1H5V2.5H3.5V1ZM3.5 3.5H5V5.5H3.5V3.5ZM6 3.5V5.5H8V3.5H6ZM6 1V2.5H8V1H6ZM2.5 3.5V5.5H1V3.5H2.5Z" fill="black"/>
<path fill-rule="evenodd" clip-rule="evenodd" d="M7 16V9.5H16V16H7ZM9.5 10.5H8V13H9.5V10.5ZM10.5 10.5H12V13H10.5V10.5ZM10.5 14H12V15H10.5V14ZM13 14V15H15V14H13ZM13 10.5V13H15V10.5H13ZM9.5 14V15H8V14H9.5Z" fill="black"/>
<path d="M11.3201 3H9.82007V2H11.3201C12.7008 2 13.8201 3.11929 13.8201 4.5V6.29289L15.1485 4.96447C15.3438 4.7692 15.6603 4.7692 15.8556 4.96447C16.0509 5.15973 16.0509 5.47631 15.8556 5.67157L13.6736 7.85355C13.4784 8.04882 13.1618 8.04882 12.9665 7.85355L10.7845 5.67157C10.5893 5.47631 10.5893 5.15973 10.7845 4.96447C10.9798 4.7692 11.2964 4.7692 11.4916 4.96447L12.8201 6.29289V4.5C12.8201 3.67157 12.1485 3 11.3201 3Z" fill="black"/>
<path d="M6.18201 13H4.68201C3.85358 13 3.18201 12.3284 3.18201 11.5L3.18201 9.70711L4.51043 11.0355C4.7057 11.2308 5.02228 11.2308 5.21754 11.0355C5.4128 10.8403 5.4128 10.5237 5.21754 10.3284L3.03556 8.14645C2.8403 7.95118 2.52372 7.95118 2.32845 8.14645L0.146473 10.3284C-0.0487892 10.5237 -0.0487892 10.8403 0.146473 11.0355C0.341735 11.2308 0.658318 11.2308 0.85358 11.0355L2.18201 9.70711L2.18201 11.5C2.18201 12.8807 3.30129 14 4.68201 14H6.18201V13Z" fill="black"/>
</svg>
