<svg width="16" height="16" viewBox="0 0 16 16" fill="none" xmlns="http://www.w3.org/2000/svg">
<path fill-rule="evenodd" clip-rule="evenodd" d="M9.83896 2.74833C9.03232 1.45433 6.96767 1.45433 6.16104 2.74834L0.274037 13.1626C-0.517109 14.4318 0.49927 16 2.11299 16H13.887C15.5007 16 16.5171 14.4318 15.726 13.1626L9.83896 2.74833ZM7 6C7 5.44772 7.44772 5 8 5C8.55228 5 9 5.44772 9 6V10C9 10.5523 8.55228 11 8 11C7.44772 11 7 10.5523 7 10V6ZM7 13C7 12.4477 7.44772 12 8 12C8.55228 12 9 12.4477 9 13C9 13.5523 8.55228 14 8 14C7.44772 14 7 13.5523 7 13Z" fill="black"/>
</svg>
