<svg width="16" height="16" viewBox="0 0 16 16" fill="none" xmlns="http://www.w3.org/2000/svg">
<path d="M2 1V8H3V2H13V8H14V1H2Z" fill="black"/>
<path d="M11 5C11.5522 5 12 4.55225 12 4C12 3.44775 11.5522 3 11 3C10.4478 3 10 3.44775 10 4C10 4.55225 10.4478 5 11 5Z" fill="black"/>
<path d="M4.17798 10.886L3.63806 12.344H4.70605L4.17798 10.886Z" fill="black"/>
<path fill-rule="evenodd" clip-rule="evenodd" d="M1 9H15V15H1V9ZM13.3107 10.6279V14H12.2847V10.6279H11.0847V9.75195H14.5107V10.6279H13.3107ZM7.80908 9.75195V14H10.4851V13.106H8.84106V9.75195H7.80908ZM5.31799 14L4.98804 13.166H3.34399L3.03198 14H1.91602L3.698 9.75195H4.69397L6.45801 14H5.31799Z" fill="black"/>
<path d="M6.85059 7.37744L8.66663 5L11 8H4L5.75 6.09082L6.85059 7.37744Z" fill="black"/>
</svg>
