<svg width="16" height="16" viewBox="0 0 16 16" fill="none" xmlns="http://www.w3.org/2000/svg">
<path fill-rule="evenodd" clip-rule="evenodd" d="M4 10.293L0.646484 13.6465L1.35359 14.3536L14.3536 1.35359L13.6465 0.646484L10.6022 3.69074C10.0502 2.68318 8.9799 2 7.75 2H5C4.44772 2 4 2.44772 4 3V10.293ZM5 9.29297L5.79297 8.5H5V9.29297ZM6.79297 7.5L9.85068 4.44229C9.5261 3.59867 8.70796 3 7.75 3H5V7.5H6.79297ZM5 14C4.54736 14 4.16497 13.6993 4.04171 13.2867L5 12.3284V13H9.75C10.9926 13 12 11.9926 12 10.75C12 9.50736 10.9926 8.5 9.75 8.5H8.82843L10.6888 6.63967C10.5345 6.96533 10.3277 7.26124 10.0793 7.51648C11.7196 7.68152 13 9.06623 13 10.75C13 12.5449 11.5449 14 9.75 14H5Z" fill="black"/>
</svg>
