<svg width="16" height="16" viewBox="0 0 16 16" fill="none" xmlns="http://www.w3.org/2000/svg">
<path fill-rule="evenodd" clip-rule="evenodd" d="M11.7949 5.28125C12.1818 4.89447 12.823 4.90802 13.2266 5.31152L14.6885 6.77344C15.092 7.17705 15.1055 7.81818 14.7188 8.20508L8.41309 14.5098L5.73926 14.9902C5.41178 15.0491 5.08742 14.8293 5.01465 14.499C4.99726 14.4201 4.9957 14.339 5.00977 14.2607L5.48926 11.5869L11.7949 5.28125ZM6.43262 12.1055L6.1123 13.8877L7.89453 13.5674L11.8857 9.57617L10.4238 8.11426L6.43262 12.1055ZM11.125 7.41309L12.5859 8.875L13.9873 7.47363L12.5254 6.0127L11.125 7.41309Z" fill="black"/>
<path fill-rule="evenodd" clip-rule="evenodd" d="M4 1C5.65685 1 7 2.34315 7 4C7 5.65685 5.65685 7 4 7C2.34315 7 1 5.65685 1 4C1 2.34315 2.34315 1 4 1ZM4 2C2.89543 2 2 2.89543 2 4C2 5.10457 2.89543 6 4 6C5.10457 6 6 5.10457 6 4C6 2.89543 5.10457 2 4 2Z" fill="black"/>
</svg>
