<svg width="16" height="17" viewBox="0 0 16 17" fill="none" xmlns="http://www.w3.org/2000/svg">
<path fill-rule="evenodd" clip-rule="evenodd" d="M0 12V10.5H1L1 12H2.5V13H1C0.447716 13 0 12.5523 0 12ZM1 1H2.5V2L1 2V3.5H0V2C0 1.44772 0.447715 1 1 1ZM1 8.5H0V5.5H1V8.5ZM4.5 2V1H7.5V2H4.5ZM9.5 2V1H11C11.5523 1 12 1.44772 12 2V3.5H11V2H9.5ZM14.3133 16.0204L10.7778 12.4849L7.24226 16.0204L6.53516 15.3133L10.0707 11.7778L6.53516 8.24226L7.24226 7.53516L10.7778 11.0707L14.3133 7.53516L15.0204 8.24226L11.4849 11.7778L15.0204 15.3133L14.3133 16.0204Z" fill="black"/>
</svg>
