<svg width="16" height="16" viewBox="0 0 16 16" fill="none" xmlns="http://www.w3.org/2000/svg">
<path d="M0 0H14V1.20711L8.5 6.70711V8H7.5V6.29289L12.7929 1H1.20711L6.5 6.29289V15.2071L5.5 14.2071V6.70711L0 1.20711V0Z" fill="black"/>
<path fill-rule="evenodd" clip-rule="evenodd" d="M10.2711 10.4371C10.6106 10.0975 11.0712 9.90674 11.5514 9.90674C11.7892 9.90674 12.0247 9.95357 12.2443 10.0446C12.464 10.1356 12.6636 10.2689 12.8318 10.4371C12.9999 10.6052 13.1333 10.8048 13.2243 11.0245C13.3153 11.2442 13.3621 11.4797 13.3621 11.7174C13.3621 11.9552 13.3153 12.1907 13.2243 12.4104C13.1333 12.63 12.9999 12.8297 12.8318 12.9978C12.6636 13.1659 12.464 13.2993 12.2443 13.3903C12.0247 13.4813 11.7892 13.5281 11.5514 13.5281C11.0712 13.5281 10.6106 13.3374 10.2711 12.9978C9.93149 12.6582 9.74072 12.1977 9.74072 11.7174C9.74072 11.2372 9.93149 10.7767 10.2711 10.4371ZM11.5514 10.9067C11.3364 10.9067 11.1302 10.9922 10.9782 11.1442C10.8261 11.2962 10.7407 11.5024 10.7407 11.7174C10.7407 11.9324 10.8261 12.1387 10.9782 12.2907C11.1302 12.4427 11.3364 12.5281 11.5514 12.5281C11.6579 12.5281 11.7633 12.5072 11.8617 12.4664C11.96 12.4257 12.0494 12.366 12.1247 12.2907C12.2 12.2154 12.2597 12.126 12.3004 12.0277C12.3411 11.9293 12.3621 11.8239 12.3621 11.7174C12.3621 11.611 12.3411 11.5056 12.3004 11.4072C12.2597 11.3088 12.2 11.2195 12.1247 11.1442C12.0494 11.0689 11.96 11.0092 11.8617 10.9684C11.7633 10.9277 11.6579 10.9067 11.5514 10.9067Z" fill="black"/>
<path fill-rule="evenodd" clip-rule="evenodd" d="M11.5198 7.50005L11.5246 7.5C11.7832 7.50002 12.0415 7.52389 12.2951 7.57065C12.486 7.60584 12.6393 7.74836 12.6883 7.9362L12.8373 8.50767C13.0393 8.59196 13.2331 8.69551 13.4156 8.81715L14.039 8.65631C14.211 8.61192 14.3937 8.66216 14.5188 8.78829C14.9086 9.18117 15.2162 9.64785 15.4235 10.161C15.4958 10.3401 15.4585 10.5449 15.3277 10.687L14.9254 11.1238C14.9811 11.4538 14.9875 11.7903 14.9444 12.1222L15.3628 12.5632C15.4914 12.6989 15.5337 12.895 15.4723 13.0716C15.2968 13.5761 15.0259 14.0422 14.6743 14.4443C14.5534 14.5826 14.3664 14.6434 14.1873 14.6028L13.599 14.4693C13.3521 14.6574 13.08 14.81 12.7907 14.9227L12.6373 15.4783C12.5861 15.6638 12.433 15.8034 12.2436 15.8374C12.0056 15.88 11.7645 15.9021 11.5227 15.9033L11.5208 15.9033C11.2164 15.9036 10.9129 15.8693 10.6162 15.8009C10.4386 15.7599 10.2973 15.6256 10.2475 15.4502L10.0763 14.8468C9.83957 14.7383 9.616 14.6032 9.40994 14.444L8.84027 14.5905C8.65554 14.638 8.45987 14.5762 8.33586 14.4313C7.96707 14.0003 7.69025 13.4985 7.5224 12.9567C7.47028 12.7885 7.51054 12.6052 7.62838 12.4743L8.08025 11.9723C8.06037 11.7379 8.06556 11.5021 8.09573 11.2689L7.67413 10.8291C7.54326 10.6926 7.50062 10.4939 7.56392 10.3157C7.76074 9.76171 8.07269 9.25568 8.47923 8.83096C8.60324 8.7014 8.78714 8.64818 8.96117 8.69149L9.57767 8.8449C9.72317 8.74472 9.87605 8.65569 10.035 8.57859L10.1964 7.9814C10.2433 7.80788 10.3797 7.67288 10.5537 7.62781C10.8693 7.54608 11.1937 7.50317 11.5198 7.50005ZM11.527 8.50002C11.3777 8.50157 11.229 8.51423 11.0819 8.53783L10.9381 9.06985C10.897 9.22205 10.7865 9.34593 10.64 9.40411C10.4088 9.49589 10.1927 9.62163 9.99869 9.77718C9.87694 9.8748 9.7166 9.90997 9.56517 9.87229L9.01527 9.73545C8.859 9.93108 8.72653 10.1446 8.62064 10.3714L8.99175 10.7585C9.10656 10.8783 9.15449 11.0472 9.11969 11.2094C9.0598 11.4886 9.05231 11.7766 9.0976 12.0585C9.12158 12.2078 9.07671 12.36 8.97555 12.4723L8.57113 12.9216C8.66032 13.1398 8.77361 13.3473 8.90888 13.5403L9.40944 13.4116C9.57269 13.3696 9.7461 13.4127 9.8707 13.5262C10.1016 13.7366 10.3711 13.9003 10.6642 14.0084C10.8142 14.0637 10.9286 14.1873 10.9723 14.341L11.1246 14.8777C11.2552 14.8948 11.3868 14.9034 11.5188 14.9033C11.5998 14.9029 11.6808 14.8994 11.7616 14.8928L11.897 14.4021C11.9431 14.2353 12.0722 14.1041 12.2383 14.0554C12.5713 13.9578 12.8782 13.7868 13.1365 13.5552C13.2572 13.4469 13.4229 13.4039 13.581 13.4398L14.1029 13.5582C14.2251 13.3893 14.3303 13.2088 14.4169 13.0192L14.047 12.6292C13.9337 12.5098 13.8865 12.3423 13.9206 12.1813C13.9966 11.8233 13.9891 11.4526 13.8987 11.0979C13.8569 10.934 13.9009 10.7601 14.0154 10.6357L14.3664 10.2546C14.2632 10.0572 14.1394 9.87126 13.9971 9.69986L13.4386 9.84396C13.2883 9.88275 13.1285 9.8495 13.0061 9.75396C12.7846 9.58108 12.5335 9.44831 12.265 9.36128C12.1027 9.30867 11.9784 9.17692 11.9353 9.0118L11.805 8.51225C11.7125 8.50419 11.6197 8.50009 11.527 8.50002Z" fill="black"/>
</svg>
