<svg width="16" height="16" viewBox="0 0 16 16" fill="none" xmlns="http://www.w3.org/2000/svg">
<path fill-rule="evenodd" clip-rule="evenodd" d="M2 15C1.44772 15 1 14.5523 1 14L1 2C1 1.44772 1.44772 1 2 1L11 1C11.5523 1 12 1.44772 12 2V14C12 14.5523 11.5523 15 11 15H2ZM2 14L2 2H6V14H2ZM7 7V2H11V7H7ZM7 14V8H11V14H7Z" fill="black"/>
<path d="M14 14.5C14 14.7761 14.2239 15 14.5 15C14.7761 15 15 14.7761 15 14.5V1.5C15 1.22386 14.7761 1 14.5 1C14.2239 1 14 1.22386 14 1.5V14.5Z" fill="black"/>
</svg>
