<svg width="16" height="16" viewBox="0 0 16 16" fill="none" xmlns="http://www.w3.org/2000/svg">
<path fill-rule="evenodd" clip-rule="evenodd" d="M1 8C1 4.13425 4.13425 1 8 1C11.8658 1 15 4.13425 15 8C15 11.8658 11.8657 15 8 15C4.13425 15 1 11.8657 1 8ZM2.75 8C2.75 9.13312 3.1175 10.1761 3.72825 11.0345L11.0345 3.72825C10.1761 3.1175 9.13313 2.75 8 2.75C5.10113 2.75 2.75 5.10112 2.75 8ZM12.2717 4.96551C12.8825 5.82389 13.25 6.86689 13.25 8.00001C13.25 10.8989 10.8989 13.25 8 13.25C6.866 13.25 5.82387 12.8825 4.9655 12.2718L12.2717 4.96551Z" fill="black"/>
</svg>
