<svg width="16" height="16" viewBox="0 0 16 16" fill="none" xmlns="http://www.w3.org/2000/svg">
<path fill-rule="evenodd" clip-rule="evenodd" d="M6 12C8.20914 12 10 10.2091 10 8C10 5.79086 8.20914 4 6 4C3.79086 4 2 5.79086 2 8C2 10.2091 3.79086 12 6 12ZM6 11C7.65685 11 9 9.65685 9 8C9 7.13926 8.63751 6.36319 8.05686 5.81611L4.77479 10.7392C5.14888 10.9068 5.56356 11 6 11ZM3.94315 10.1839L7.22523 5.26079C6.85113 5.0932 6.43645 5 6 5C4.34315 5 3 6.34315 3 8C3 8.86074 3.3625 9.63682 3.94315 10.1839Z" fill="black"/>
<path fill-rule="evenodd" clip-rule="evenodd" d="M6 2C2.68629 2 0 4.68629 0 8C0 11.3137 2.68629 14 6 14H10C13.3137 14 16 11.3137 16 8C16 4.68629 13.3137 2 10 2H6ZM10 3H6C3.23858 3 1 5.23858 1 8C1 10.7614 3.23858 13 6 13H10C12.7614 13 15 10.7614 15 8C15 5.23858 12.7614 3 10 3Z" fill="black"/>
</svg>
