<svg width="16" height="16" viewBox="0 0 16 16" fill="none" xmlns="http://www.w3.org/2000/svg">
<path fill-rule="evenodd" clip-rule="evenodd" d="M4.8401 10.4529L1.64648 13.6465L2.35359 14.3536L15.3536 1.35359L14.6465 0.646484L12 3.29297V2.5C12 2.22386 11.7761 2 11.5 2C11.2239 2 11 2.22386 11 2.5V4.29297L5.55466 9.73831C5.20541 9.24789 5 8.64793 5 8V2.5C5 2.22386 4.77614 2 4.5 2C4.22386 2 4 2.22386 4 2.5V8C4 8.92438 4.31355 9.77552 4.8401 10.4529ZM8 12C7.50206 12 7.02538 11.909 6.58566 11.7428L7.3904 10.938C7.58724 10.9787 7.79113 11 8 11C9.65685 11 11 9.65685 11 8V7.32843L12 6.32843V8C12 10.2091 10.2091 12 8 12ZM4.5 14C4.44811 14 4.39806 13.9921 4.351 13.9774L5.32843 13H11.5C11.7761 13 12 13.2239 12 13.5C12 13.7761 11.7761 14 11.5 14H4.5Z" fill="black"/>
</svg>
