<svg width="16" height="16" viewBox="0 0 16 16" fill="none" xmlns="http://www.w3.org/2000/svg">
<path d="M13.0891 12.7962L16.0001 15.7071V14.2929L1.70718 0H0.292969L2.29297 2H1V3H3.29297L7.29297 7H1V8H8.29297L12.2743 11.9813C12.1846 11.9936 12.0931 12 12 12H10V10L7 12.5L10 15V13H12C12.3842 13 12.7515 12.9278 13.0891 12.7962Z" fill="black"/>
<path d="M15 10C15 10.4631 14.895 10.9018 14.7076 11.2934L13.9323 10.518C13.9764 10.3528 14 10.1792 14 10C14 8.89543 13.1046 8 12 8H11.4142L10.4142 7H12C13.6569 7 15 8.34315 15 10Z" fill="black"/>
<path d="M15 3H6.41421L5.41421 2H15V3Z" fill="black"/>
<path d="M1 12H5V13H1V12Z" fill="black"/>
</svg>
