<svg width="68" height="48" viewBox="0 0 68 48" fill="none" xmlns="http://www.w3.org/2000/svg">
<path fill-rule="evenodd" clip-rule="evenodd" d="M64 15.5C64 14.6716 63.3284 14 62.5 14H5.5C4.7203 14 4.07955 14.5949 4.00687 15.3555L4 15.5V42.5C4 43.3284 4.67157 44 5.5 44H62.5C63.3284 44 64 43.3284 64 42.5V15.5ZM5 15.5C5 15.2239 5.22386 15 5.5 15H62.5C62.7761 15 63 15.2239 63 15.5V42.5C63 42.7761 62.7761 43 62.5 43H5.5C5.22386 43 5 42.7761 5 42.5V15.5Z" fill="#363636"/>
<rect width="4" height="4" transform="matrix(-1 0 0 1 60 18)" fill="#363636"/>
<rect width="4" height="4" transform="matrix(-1 0 0 1 30 18)" fill="#363636"/>
<rect width="1" height="22" transform="matrix(-1 0 0 1 35 18)" fill="#363636"/>
<rect width="4" height="4" transform="matrix(-1 0 0 1 54 18)" fill="#363636"/>
<rect width="4" height="4" transform="matrix(-1 0 0 1 24 18)" fill="#363636"/>
<rect width="4" height="4" transform="matrix(-1 0 0 1 48 18)" fill="#363636"/>
<rect width="4" height="4" transform="matrix(-1 0 0 1 18 18)" fill="#363636"/>
<rect width="4" height="4" transform="matrix(-1 0 0 1 42 18)" fill="#363636"/>
<rect width="4" height="4" transform="matrix(-1 0 0 1 12 18)" fill="#363636"/>
<rect width="4" height="4" transform="matrix(-1 0 0 1 60 30)" fill="#363636"/>
<rect width="4" height="4" transform="matrix(-1 0 0 1 30 30)" fill="#363636"/>
<rect width="4" height="4" transform="matrix(-1 0 0 1 54 30)" fill="#363636"/>
<rect width="4" height="4" transform="matrix(-1 0 0 1 48 30)" fill="#363636"/>
<rect width="4" height="4" transform="matrix(-1 0 0 1 42 30)" fill="#363636"/>
<rect width="4" height="4" transform="matrix(-1 0 0 1 60 36)" fill="#363636"/>
<rect width="4" height="4" transform="matrix(-1 0 0 1 30 36)" fill="#363636"/>
<rect width="4" height="4" transform="matrix(-1 0 0 1 54 36)" fill="#363636"/>
<rect width="4" height="4" transform="matrix(-1 0 0 1 48 36)" fill="#363636"/>
<rect width="4" height="4" transform="matrix(-1 0 0 1 60 24)" fill="#363636"/>
<rect width="4" height="4" transform="matrix(-1 0 0 1 30 24)" fill="#363636"/>
<rect width="4" height="4" transform="matrix(-1 0 0 1 54 24)" fill="#6A6A6A"/>
<rect width="4" height="4" transform="matrix(-1 0 0 1 24 24)" fill="#363636"/>
<path fill-rule="evenodd" clip-rule="evenodd" d="M13.5 41C17.0902 41 20 38.0902 20 34.5C20 30.9104 17.0902 28 13.5 28C9.90983 28 7 30.9098 7 34.5C7 38.0902 9.90983 41 13.5 41ZM13.5 29.218C16.4169 29.218 18.7812 31.5825 18.7812 34.4995C18.7812 37.4164 16.4169 39.7809 13.5 39.7809C10.5842 39.7809 8.21821 37.4164 8.21821 34.4995C8.21821 31.5831 10.5842 29.218 13.5 29.218ZM13.6094 35.109H16.2489C16.4102 35.1098 16.5652 35.0461 16.6796 34.9318C16.7941 34.8176 16.8585 34.6622 16.8588 34.5C16.8588 34.1634 16.5869 33.891 16.2495 33.891H14.2182V30.8434C14.2182 30.5067 13.9463 30.2344 13.6094 30.2344C13.273 30.2344 13 30.5067 13 30.8434V34.4994C13 34.8366 13.273 35.109 13.6094 35.109Z" fill="#6A6A6A"/>
<rect width="4" height="4" transform="matrix(-1 0 0 1 48 24)" fill="#363636"/>
<rect width="4" height="4" transform="matrix(-1 0 0 1 42 24)" fill="#363636"/>
<rect width="60" height="8" rx="1" transform="matrix(-1 0 0 1 64 4)" fill="#6A6A6A"/>
<rect width="34" height="2" transform="matrix(-1 0 0 1 61 7)" fill="#181818"/>
<rect width="17" height="2" transform="matrix(-1 0 0 1 24 7)" fill="#181818"/>
</svg>
