<svg width="68" height="48" viewBox="0 0 68 48" fill="none" xmlns="http://www.w3.org/2000/svg">
<path fill-rule="evenodd" clip-rule="evenodd" d="M64 15C64 14.4477 63.5523 14 63 14H5C4.44772 14 4 14.4477 4 15V43C4 43.5523 4.44772 44 5 44H63C63.5523 44 64 43.5523 64 43V15ZM5 15H63V43H5V15Z" fill="#363636"/>
<rect x="16" y="20" width="44" height="2" fill="#6A6A6A"/>
<path d="M13.0546 19.1598L10.3931 21.7829L8.9454 20.3504C8.73001 20.1373 8.37692 20.1373 8.16154 20.3504C7.94615 20.5635 7.94615 20.9129 8.16154 21.126L9.89521 22.8415C10.0117 22.9568 10.2201 23.0092 10.3931 22.9987C10.5661 23.0057 10.7744 22.9533 10.8874 22.8415L13.8385 19.9355C14.0538 19.7223 14.0538 19.373 13.8385 19.1598C13.6231 18.9467 13.2735 18.9467 13.0546 19.1598Z" fill="#999999"/>
<rect x="16" y="28" width="44" height="2" fill="#363636"/>
<rect x="16" y="36" width="44" height="2" fill="#363636"/>
<rect x="4" y="4" width="60" height="8" rx="2" fill="#6A6A6A"/>
<path fill-rule="evenodd" clip-rule="evenodd" d="M55 6L61 6L58 10L55 6Z" fill="#181818"/>
<rect x="7" y="7" width="46" height="2" fill="#181818"/>
</svg>
