<svg width="68" height="48" viewBox="0 0 68 48" fill="none" xmlns="http://www.w3.org/2000/svg">
<rect width="15" height="8" rx="1" transform="matrix(-1 0 0 1 36 24)" fill="#363636"/>
<rect width="15" height="8" rx="1" transform="matrix(-1 0 0 1 19 24)" fill="#363636"/>
<rect width="26" height="8" rx="1" transform="matrix(-1 0 0 1 64 24)" fill="#363636"/>
<rect width="19" height="8" rx="1" transform="matrix(-1 0 0 1 64 4)" fill="#6A6A6A"/>
<rect width="34" height="8" rx="1" transform="matrix(-1 0 0 1 64 14)" fill="#363636"/>
<rect width="15" height="8" rx="1" transform="matrix(-1 0 0 1 23 4)" fill="#363636"/>
<rect width="18" height="8" rx="1" transform="matrix(-1 0 0 1 43 4)" fill="#363636"/>
<rect width="24" height="8" rx="1" transform="matrix(-1 0 0 1 28 14)" fill="#363636"/>
<rect width="24" height="8" rx="1" transform="matrix(-1 0 0 1 64 34)" fill="#363636"/>
</svg>
