<svg width="68" height="48" viewBox="0 0 68 48" fill="none" xmlns="http://www.w3.org/2000/svg">
<path fill-rule="evenodd" clip-rule="evenodd" d="M64 15.5C64 14.6716 63.3284 14 62.5 14H5.5C4.7203 14 4.07955 14.5949 4.00687 15.3555L4 15.5V42.5C4 43.3284 4.67157 44 5.5 44H62.5C63.3284 44 64 43.3284 64 42.5V15.5ZM5 15.5C5 15.2239 5.22386 15 5.5 15H62.5C62.7761 15 63 15.2239 63 15.5V42.5C63 42.7761 62.7761 43 62.5 43H5.5C5.22386 43 5 42.7761 5 42.5V15.5Z" fill="#363636"/>
<rect width="4" height="4" transform="matrix(-1 0 0 1 60 18)" fill="#363636"/>
<rect width="4" height="4" transform="matrix(-1 0 0 1 30 18)" fill="#363636"/>
<rect width="1" height="22" transform="matrix(-1 0 0 1 35 18)" fill="#363636"/>
<rect width="4" height="4" transform="matrix(-1 0 0 1 54 18)" fill="#363636"/>
<rect width="4" height="4" transform="matrix(-1 0 0 1 24 18)" fill="#363636"/>
<rect width="4" height="4" transform="matrix(-1 0 0 1 48 18)" fill="#363636"/>
<rect width="4" height="4" transform="matrix(-1 0 0 1 18 18)" fill="#363636"/>
<rect width="4" height="4" transform="matrix(-1 0 0 1 42 18)" fill="#363636"/>
<rect width="4" height="4" transform="matrix(-1 0 0 1 12 18)" fill="#363636"/>
<rect width="4" height="4" transform="matrix(-1 0 0 1 60 30)" fill="#363636"/>
<rect width="4" height="4" transform="matrix(-1 0 0 1 30 30)" fill="#363636"/>
<rect width="4" height="4" transform="matrix(-1 0 0 1 54 30)" fill="#363636"/>
<rect width="4" height="4" transform="matrix(-1 0 0 1 24 30)" fill="#363636"/>
<rect width="4" height="4" transform="matrix(-1 0 0 1 18 30)" fill="#363636"/>
<rect width="4" height="4" transform="matrix(-1 0 0 1 48 30)" fill="#363636"/>
<rect width="4" height="4" transform="matrix(-1 0 0 1 42 30)" fill="#363636"/>
<rect width="4" height="4" transform="matrix(-1 0 0 1 12 30)" fill="#363636"/>
<rect width="4" height="4" transform="matrix(-1 0 0 1 60 36)" fill="#363636"/>
<rect width="4" height="4" transform="matrix(-1 0 0 1 30 36)" fill="#363636"/>
<rect width="4" height="4" transform="matrix(-1 0 0 1 54 36)" fill="#363636"/>
<rect width="4" height="4" transform="matrix(-1 0 0 1 24 36)" fill="#363636"/>
<rect width="4" height="4" transform="matrix(-1 0 0 1 48 36)" fill="#363636"/>
<rect width="4" height="4" transform="matrix(-1 0 0 1 60 24)" fill="#363636"/>
<rect width="4" height="4" transform="matrix(-1 0 0 1 30 24)" fill="#363636"/>
<rect width="4" height="4" transform="matrix(-1 0 0 1 54 24)" fill="#6A6A6A"/>
<rect width="4" height="4" transform="matrix(-1 0 0 1 24 24)" fill="#363636"/>
<rect width="4" height="4" transform="matrix(-1 0 0 1 48 24)" fill="#363636"/>
<rect width="4" height="4" transform="matrix(-1 0 0 1 18 24)" fill="#363636"/>
<rect width="4" height="4" transform="matrix(-1 0 0 1 42 24)" fill="#363636"/>
<rect width="4" height="4" transform="matrix(-1 0 0 1 12 24)" fill="#363636"/>
<rect width="60" height="8" rx="1" transform="matrix(-1 0 0 1 64 4)" fill="#6A6A6A"/>
<rect width="54" height="2" transform="matrix(-1 0 0 1 61 7)" fill="#181818"/>
</svg>
